<svg width="24" height="40" viewBox="0 0 24 40" fill="none" xmlns="http://www.w3.org/2000/svg">
<path d="M14.2638 39.2637H7.77447C6.69054 39.2637 5.8088 38.4151 5.8088 37.3719V23.2848H2.02277C0.938836 23.2848 0.0570984 22.4359 0.0570984 21.393V15.3567C0.0570984 14.3135 0.938836 13.4649 2.02277 13.4649H5.8088V10.4421C5.8088 7.44495 6.78669 4.89498 8.63642 3.06834C10.4945 1.23338 13.0912 0.263672 16.1457 0.263672L21.0948 0.271408C22.1769 0.273193 23.0571 1.1218 23.0571 2.16321V7.76779C23.0571 8.81099 22.1757 9.65959 21.092 9.65959L17.7599 9.66078C16.7436 9.66078 16.4849 9.85686 16.4295 9.91697C16.3383 10.0166 16.2298 10.2984 16.2298 11.0765V13.4646H20.8416C21.1888 13.4646 21.5252 13.547 21.8143 13.7024C22.4378 14.0377 22.8255 14.6718 22.8255 15.357L22.8231 21.3933C22.8231 22.4359 21.9413 23.2845 20.8574 23.2845H16.2298V37.3719C16.2298 38.4151 15.3478 39.2637 14.2638 39.2637ZM8.18442 36.9773H13.8539V22.2613C13.8539 21.5647 14.4428 20.9982 15.1663 20.9982H20.4474L20.4496 15.7513H15.166C14.4425 15.7513 13.8539 15.1847 13.8539 14.4882V11.0765C13.8539 10.1833 13.9482 9.16745 14.6487 8.40395C15.4952 7.48096 16.8293 7.37444 17.7593 7.37444L20.6815 7.37325V2.55716L16.1439 2.55002C11.2349 2.55002 8.18442 5.57428 8.18442 10.4421V14.4882C8.18442 15.1844 7.59577 15.7513 6.87233 15.7513H2.43272V20.9982H6.87233C7.59577 20.9982 8.18442 21.5647 8.18442 22.2613V36.9773ZM21.0902 2.55775H21.0905H21.0902Z" fill="#C4C4C4"/>
</svg>
