<svg width="180" height="166" viewBox="0 0 180 166" fill="none" xmlns="http://www.w3.org/2000/svg">
<g opacity="0.15">
<path d="M95.4112 0.612961C92.0214 1.10707 79.4328 2.33527 73.7503 2.71645C70.5012 2.94232 62.948 2.98466 60.8522 2.80115C59.7832 2.70232 59.5441 2.63173 58.883 2.19409C57.8703 1.50235 57.2374 1.33295 56.0418 1.40353C54.6493 1.50235 53.6085 2.02469 52.441 3.19643C51.3017 4.35405 50.8798 5.20108 50.7813 6.47165C50.711 7.55869 50.922 10.2127 51.3158 12.8103C51.7378 15.6197 51.9065 17.8361 51.8081 18.9937C51.7378 19.6855 51.4564 20.8713 51.0345 22.1983C50.6547 23.356 50.0218 25.3889 49.6279 26.7159C48.348 30.9511 47.2649 33.3228 45.7177 35.2569C44.3674 36.965 42.1873 38.5038 40.2744 39.1109C38.8959 39.5485 37.827 39.6473 33.4526 39.7744C30.5129 39.845 28.614 39.972 27.7982 40.1132C25.9275 40.452 23.227 41.3979 21.1031 42.4567C16.8271 44.5884 14.0984 46.8331 10.9759 50.8283C10.3007 51.6894 8.86607 53.4964 7.78302 54.8517C4.46356 59.0022 3.92907 59.708 3.43678 60.7386C2.56472 62.5033 2.48032 63.0115 2.43813 67.0914C2.41 70.9737 2.29747 72.0042 1.43948 76.0559C0.398627 80.9264 0.131382 82.6204 0.0329239 85.091C-0.0374037 86.7286 -0.00927267 87.1945 0.257972 88.4085C0.412693 89.185 0.60961 90.1167 0.665872 90.4838C0.750265 91.0203 0.933117 91.3167 1.56606 92.0085C2.78976 93.3214 4.70267 96.8507 5.11057 98.5307C5.16684 98.7424 5.46221 99.2083 5.75759 99.5471C6.54526 100.437 6.8125 101.636 7.07975 105.321C7.29073 108.328 7.48765 109.514 7.99401 110.897C8.92233 113.396 11.0181 116.29 13.0857 117.914C14.1125 118.718 15.8566 119.678 16.3067 119.678C16.4614 119.678 16.6162 119.876 16.7287 120.201C16.9537 120.892 17.3194 121.485 18.6697 123.264C20.3154 125.438 20.5545 126.229 20.7936 130.478C20.878 131.946 20.9765 133.287 21.0327 133.429C21.2015 134.007 25.0977 138.737 27.6435 141.461C29.1767 143.099 29.4298 143.24 31.2302 143.353C32.4539 143.438 32.468 143.438 33.2697 144.13C33.7198 144.511 34.7466 145.245 35.5343 145.767C41.2308 149.466 42.3139 150.313 42.3139 151.061C42.3139 151.626 42.6092 152.261 43.2562 153.08C44.0017 154.012 44.2971 154.591 44.4096 155.353L44.494 155.988L45.4786 156.299C46.4913 156.638 47.6025 157.118 51.5268 158.967C54.9025 160.548 56.6185 161.042 58.7705 161.042C60.2474 161.042 60.7537 160.901 61.8227 160.209C62.962 159.475 63.2011 159.419 63.8482 159.715L64.3967 159.955L64.7906 159.588C65.1422 159.249 65.2969 159.207 66.0986 159.207C68.0116 159.207 69.2071 159.842 70.7403 161.692C72.6954 164.049 73.2299 164.402 75.4381 164.882C77.0557 165.221 80.6283 165.348 84.7214 165.207L87.8158 165.108L89.2224 163.724C90.9383 162.044 91.5713 161.762 93.7374 161.649C96.1004 161.522 98.801 162.073 100.967 163.132C101.544 163.414 102.078 163.626 102.149 163.597C102.233 163.583 104.132 163.513 106.368 163.442C110.743 163.301 111.615 163.202 113.331 162.666C114.737 162.214 115.764 161.522 117.424 159.913C118.985 158.388 119.801 157.823 121.151 157.343C122.994 156.666 124.245 156.454 126.285 156.468C127.987 156.468 128.296 156.51 129.281 156.849L130.392 157.23L131.953 156.327C134.119 155.071 136.426 153.983 138.592 153.193C140.885 152.374 141.616 151.993 142.418 151.259C143.248 150.497 143.417 150.129 143.642 148.591C143.754 147.871 143.895 147.151 143.951 146.995C144.204 146.275 145.147 145.273 146.652 144.073C147.552 143.353 149.015 142.083 149.887 141.236C151.758 139.429 152.63 138.934 153.685 139.076C155.766 139.372 155.372 139.513 157.651 137.678C162.518 133.739 164.107 131.805 164.965 128.713C165.275 127.598 165.359 125.523 165.176 123.998C165.092 123.335 165.12 123.18 165.443 122.7C165.64 122.389 166.259 121.161 166.808 119.961C167.849 117.688 168.721 116.22 169.438 115.542C169.663 115.33 170.507 114.822 171.309 114.413C172.926 113.608 172.842 113.693 174.347 111.067C176.682 106.973 177.765 103.599 177.765 100.394C177.765 98.686 177.568 97.8954 176.668 96.1166L175.866 94.5072V93.0814C175.88 91.2461 176.105 90.5261 177.905 86.7851C179.439 83.5945 179.846 82.3805 179.973 80.5593C180.086 78.8229 179.846 77.5806 179.242 76.8324C178.426 75.8441 177.948 74.5877 177.357 71.9619C176.752 69.1808 176.611 68.7855 175.838 67.6279C175.528 67.1761 174.361 64.9314 173.236 62.6444C170.479 57.0681 167.891 52.7764 164.571 48.2871C163.727 47.1436 163.418 46.8189 163.08 46.7483C162.447 46.6213 161.308 45.9578 159.93 44.899C158.382 43.7131 157.637 43.3743 155.963 43.092C154.107 42.7814 153.516 42.5273 152.545 41.6379C152.025 41.1579 151.279 40.6638 150.562 40.325C149.479 39.8167 148.762 39.5909 144.655 38.4333L142.854 37.925L141.982 37.0498C140.716 35.7651 139.703 35.2569 135.653 33.831C132.811 32.8428 131.967 32.4616 130.842 31.6993L129.97 31.1205L129.886 30.2311C129.759 28.9888 129.225 27.2241 128.296 24.9653C126.215 19.8972 125.807 18.6549 125.582 16.6502C125.427 15.3373 125.624 13.6997 126.018 12.8527C126.299 12.2739 126.426 12.1609 128.128 11.1162C128.662 10.7915 128.887 10.5233 129.253 9.76099C129.675 8.89983 129.731 8.64571 129.773 7.37515L129.829 5.93518L128.479 5.55402C127.748 5.34225 125.722 4.69286 124.006 4.11406C118.014 2.08116 116.003 1.51646 113.063 1.00824C111.39 0.711777 107.929 0.655304 104.343 0.867065C102.191 0.994125 102.149 0.980011 101.08 0.612961C99.7152 0.147079 98.5197 0.147079 95.4112 0.612961ZM113.19 2.78702C115.272 3.21054 116.847 3.74701 121.151 5.46931C123.247 6.30223 125.469 7.16339 126.116 7.37515L127.284 7.75632L126.608 8.4763C124.4 10.848 123.247 13.6856 123.359 16.4385C123.402 17.6243 123.444 17.7796 124.358 19.7702C125.427 22.1136 125.483 22.3113 126.369 26.3629C127.256 30.4711 127.776 31.9675 128.789 33.3651C129.14 33.8451 129.351 33.9722 130.097 34.1839C131.475 34.5792 134.373 35.4968 135.709 35.991C137.087 36.4851 139.507 37.5156 139.507 37.6144C139.507 37.6427 139.408 37.8686 139.282 38.0944C139.169 38.3344 139.085 38.5462 139.113 38.5744C139.141 38.6027 139.76 38.7721 140.519 38.9697C141.265 39.1815 142.756 39.6615 143.825 40.0709C147.088 41.285 149.648 42.1461 150.576 42.3296C151.322 42.4849 151.462 42.5555 151.462 42.7955C151.462 42.9649 151.659 43.2896 151.884 43.5437C152.194 43.8967 152.475 44.0237 153.136 44.1508C155.133 44.5178 156.821 45.3507 160.014 47.5813C161.196 48.4001 162.293 49.1201 162.433 49.1624C162.588 49.2048 163.024 49.8259 163.432 50.5459C163.84 51.2659 165.697 54.1317 167.567 56.941C171.379 62.6303 172.715 65.0867 173.587 68.009C174.094 69.7031 174.53 71.9195 174.53 72.823V73.3454L172.954 72.6395C163.474 68.4184 156.568 63.8868 141.546 52.0423C139.071 50.0942 135.653 47.4401 133.951 46.1554C130.955 43.8967 130.547 43.4873 130.913 43.1202C131.236 42.7955 131.011 42.6261 129.534 42.0473C128.704 41.7226 127.734 41.2567 127.396 41.0167L126.777 40.565L127.382 40.4238C129.661 39.9297 134.401 42.372 141.251 47.5672C144.233 49.8259 146.652 51.52 147.918 52.2117C148.185 52.367 148.354 52.5929 148.41 52.8894C148.466 53.1717 148.748 53.5529 149.17 53.9341C149.535 54.2588 150.182 54.8799 150.618 55.3176C151.04 55.7411 151.715 56.2775 152.095 56.5034C153.375 57.2375 155.147 58.4234 157.862 60.301C161.899 63.0962 163.291 63.9715 165.542 65.1009C167.356 66.0185 170.676 67.2749 170.83 67.1055C170.859 67.0773 170.676 66.8091 170.423 66.5126C169.93 65.9479 168.636 65.2561 167.778 65.115C167.37 65.0444 167.103 64.8609 166.583 64.2538C165.739 63.2656 164.698 62.5739 163.643 62.3056C163.109 62.1645 162.56 61.8821 162.096 61.5151C160.647 60.3574 156.948 57.5622 154.416 55.727C148.044 51.0682 144.289 47.9766 141.87 45.3366C141.56 44.9978 141.223 44.7155 141.124 44.7155C140.772 44.7155 138.156 43.3037 136.412 42.1743C134.077 40.6497 132.108 39.7038 130.561 39.3226C129.422 39.0403 129.253 38.9556 128.676 38.3627C127.748 37.3886 126.777 36.7251 124.063 35.2004C120.743 33.3228 119.351 32.151 118.577 30.5699C118.436 30.2452 117.916 29.7511 117.199 29.2146C114.217 26.9982 112.388 24.6406 107.508 16.6926C104.877 12.4009 102.556 9.42216 101.867 9.42216C101.276 9.42216 100.531 9.02689 99.7715 8.3069C98.9697 7.54456 98.3368 7.34692 97.2819 7.51633C96.1004 7.69984 95.3268 8.05278 93.7655 9.11159C91.8245 10.4104 91.079 10.721 89.8412 10.721C88.7019 10.721 88.2237 10.5233 86.789 9.45039C85.4528 8.46219 84.3838 7.91161 83.3711 7.72809C82.274 7.51633 81.641 7.68573 80.4736 8.49042C79.8969 8.88571 79.1092 9.39394 78.7295 9.63393C78.1528 9.98686 77.8574 10.3398 77.0275 11.6809C76.4087 12.655 75.6351 13.6715 75.0865 14.222C74.4958 14.8009 74.0597 15.3797 73.905 15.775C72.8782 18.4149 71.5561 19.9537 67.4208 23.2571C64.8749 25.29 63.7638 26.2924 62.948 27.2806C62.5119 27.8029 61.9071 28.3253 61.3445 28.6499C59.4738 29.737 57.364 31.4311 54.5368 34.071C49.6983 38.6168 48.9387 39.1815 44.916 41.2567C42.131 42.6826 40.2744 43.8402 39.557 44.5884L39.1491 45.026L39.7117 44.9272C40.851 44.7296 41.9904 44.3908 43.1578 43.9108C45.5208 42.9367 47.2087 41.8638 51.8081 38.3627C53.51 37.0639 55.3807 35.6945 55.9574 35.2992C56.5341 34.9039 57.9688 33.7039 59.1222 32.6451C63.9185 28.2405 67.041 25.8971 70.262 24.2595C71.1763 23.8077 71.4154 23.6101 71.6967 23.1018C72.7376 21.196 74.3692 18.8525 75.8179 17.1443C76.3243 16.5373 76.9713 15.5067 77.562 14.3491C79.1796 11.1727 80.558 10.0292 83.0335 9.87392L84.201 9.80333L85.059 10.5233C86.7187 11.9209 87.9143 12.3868 89.785 12.4009C91.5291 12.415 91.9792 12.2456 94.075 10.8339C95.2565 10.0433 95.9738 9.70451 96.4942 9.70451C96.8599 9.70451 96.7333 10.0998 96.0723 11.088C95.805 11.4833 95.6222 11.8645 95.6644 11.9068C95.8472 12.0903 96.6067 11.6386 96.9725 11.1304C97.1834 10.848 97.3803 10.5939 97.3944 10.5657C97.4788 10.4668 97.8726 10.8621 97.8726 11.0598C97.8726 11.1586 97.6054 11.5398 97.2819 11.9209L96.7052 12.5986L97.4647 12.7115C97.8867 12.768 98.6322 12.768 99.1245 12.7256C100.109 12.6268 100.053 12.5562 99.7574 13.5162C99.6449 13.855 99.7293 13.855 100.601 13.6009C101.347 13.375 101.614 13.4174 101.825 13.8268C102.022 14.1938 101.755 14.5044 101.248 14.5044C100.419 14.5044 100.686 15.3797 101.67 15.8738C102.331 16.2126 103.203 16.2973 103.654 16.0573C104.005 15.8597 104.005 16.0855 103.64 16.4102C103.33 16.6926 103.274 17.1161 103.513 17.2714C103.597 17.3138 103.907 17.2432 104.202 17.1161C105.271 16.6361 105.482 17.2432 104.54 18.1184C104.033 18.5984 103.921 19.0784 104.287 19.2196C104.526 19.3184 105.187 19.0078 105.454 18.6831C105.679 18.4149 106.171 18.3867 106.171 18.6266C106.171 18.7255 105.932 18.9372 105.637 19.0925C105.229 19.3184 105.13 19.4596 105.159 19.7278C105.201 20.1654 105.215 20.1796 105.96 20.2502C106.678 20.3349 106.79 20.589 106.242 20.9419C105.538 21.3936 105.96 21.8878 106.72 21.5066C107.268 21.2101 107.986 21.2101 108.098 21.5066C108.14 21.6336 108.014 21.9019 107.733 22.1842C107.015 22.9324 107.184 23.1866 108.408 23.1866C109.364 23.1866 109.603 23.4548 109.153 24.0336C108.844 24.4289 108.745 25.0077 108.956 25.1488C109.027 25.1912 109.378 25.1206 109.758 25.0077C110.546 24.7818 111.024 24.8524 110.883 25.2053C110.489 26.2359 110.827 26.7865 111.854 26.7865C112.43 26.7865 112.487 26.8147 112.571 27.2241C112.627 27.4641 113.176 28.41 113.795 29.3276C114.667 30.6264 114.934 31.1346 114.99 31.6287C115.061 32.1652 115.131 32.2781 115.567 32.5181C115.834 32.6593 116.228 32.9416 116.453 33.1534C116.805 33.4922 116.833 33.5769 116.763 34.3533C116.636 35.7086 116.861 36.2027 118.211 37.685C119.041 38.5744 119.745 39.5485 120.42 40.692C120.954 41.6238 121.84 43.1343 122.375 44.0378C124.035 46.8895 125.385 48.4001 130.505 53.1153C132.98 55.4023 135.132 57.5481 136.482 59.0445C138.845 61.6986 140.111 62.8421 141.419 63.5197C142.249 63.9574 142.348 64.0562 142.784 64.9314L143.234 65.8914H143.979C144.725 65.8914 144.725 65.8914 144.978 66.4985C145.119 66.8232 145.287 67.3032 145.344 67.5573C145.442 68.009 145.442 68.009 146.314 68.009C147.636 68.009 147.833 68.3478 147.032 69.1808C146.764 69.4631 146.539 69.7455 146.539 69.8302C146.539 70.056 147.003 70.1266 147.524 69.9855C148.326 69.7596 149.071 69.8019 149.071 70.0843C149.071 70.2113 149.141 70.536 149.24 70.7901C149.395 71.2278 149.451 71.256 150.112 71.256C150.759 71.256 150.843 71.2984 151.448 71.9619C151.94 72.4983 152.236 72.696 152.63 72.7666C153.052 72.823 153.15 72.8936 153.08 73.0771C152.798 73.7548 152.7 74.1077 152.784 74.1783C152.939 74.3336 153.685 74.2348 154.149 73.9948C154.613 73.7689 154.613 73.7689 154.936 74.1642C155.372 74.7148 155.344 74.9265 154.768 75.3924C154.5 75.6041 154.275 75.8441 154.275 75.9288C154.275 76.0277 154.782 76.0559 155.682 76.0277C156.456 75.9994 157.088 75.9994 157.088 76.0277C157.088 76.0559 156.92 76.2959 156.709 76.5641C156.399 76.9876 156.371 77.0865 156.54 77.1994C156.948 77.4676 157.426 77.4959 158.157 77.2982C159.297 76.9735 159.564 77.4253 158.706 78.23C158.439 78.4982 158.214 78.8088 158.214 78.9358C158.214 79.1335 158.312 79.1617 158.889 79.0911C159.494 79.0064 159.606 79.0488 160.253 79.5005C160.788 79.8958 161.097 80.0087 161.547 80.0087H162.124L162.068 80.5311C161.969 81.3358 162.11 81.4487 162.898 81.1805C163.46 80.997 163.657 80.9828 164.192 81.1381C164.937 81.3499 165.823 82.2393 166.076 83.0157L166.259 83.5381H167.159C168.13 83.5381 168.214 83.6228 167.891 84.3145C167.806 84.5122 167.778 84.7098 167.82 84.7663C167.975 84.9216 168.721 84.8369 169.143 84.6251C169.354 84.5122 169.705 84.3851 169.93 84.3286C170.31 84.2439 170.31 84.2439 170.31 84.9075V85.5851H171.759C173.039 85.5851 173.278 85.6274 173.897 85.9521L174.6 86.3192L174.558 87.2933C174.544 87.8297 174.361 89.0438 174.178 90.0038C173.7 92.3332 173.63 93.1943 173.812 94.1825C173.897 94.6484 173.939 95.0578 173.897 95.086C173.77 95.2131 172.026 94.3802 170.985 93.7025C170.423 93.3214 169.143 92.3332 168.13 91.5144C165.95 89.6932 164.965 89.0156 163.727 88.4368C163.01 88.1121 162.419 87.6603 161.238 86.5168C160.394 85.6839 158.143 83.7216 156.245 82.1263C152.489 78.9782 149.577 76.1547 148.368 74.503C147.946 73.9101 146.736 72.6395 145.625 71.6231C137.34 63.9574 130.884 57.3363 126.229 51.7035C121.024 45.4213 116.481 38.5038 113.246 31.9675C112.67 30.8099 112.177 29.8923 112.149 29.9205C112.051 30.0193 112.501 32.024 112.866 33.1393C113.373 34.6498 114.428 36.8239 116.552 40.6356C120.096 47.0448 122.009 49.84 125.202 53.2847C126.004 54.1599 126.819 55.1764 127.03 55.5717C127.537 56.4752 142.052 71.129 144.725 73.416C145.78 74.3195 146.792 75.2936 146.975 75.59C148.494 78.117 151.054 80.6017 156.245 84.5969C158.706 86.4886 160.844 88.2956 161.927 89.4109C162.335 89.8344 162.771 90.1732 162.912 90.1732C163.038 90.1732 163.573 90.3991 164.107 90.6673C164.628 90.9355 165.134 91.1614 165.232 91.1614C165.331 91.1614 165.753 91.5002 166.161 91.9238C166.569 92.3332 167.441 92.9967 168.088 93.392C169.565 94.2813 170.521 95.1284 170.887 95.8343C171.084 96.2295 171.252 96.3848 171.492 96.3848C172.012 96.3848 173.489 97.2036 173.981 97.7683C175.852 99.9 175.669 104.262 173.517 108.399C172.757 109.881 171.703 111.208 171.309 111.208C170.957 111.208 170.634 110.799 170.521 110.22C170.451 109.825 170.254 109.599 169.565 109.09C166.54 106.874 162.251 102.766 156.034 96.1025C154.177 94.1261 151.476 91.3167 150.028 89.8767C148.565 88.4368 147.383 87.1945 147.383 87.1239C147.383 86.8274 146.047 84.9498 145.006 83.8204C143.375 82.0275 142.46 80.8981 140.899 78.8088C139.521 76.9594 138.142 75.3359 135.484 72.456C132.432 69.1243 130.884 67.0208 129.689 64.522C129.098 63.2797 128.859 62.955 128.001 62.1503C126.637 60.8798 125.427 59.3269 122.923 55.5999C121.742 53.8494 120.406 51.9435 119.941 51.3647C119.323 50.5741 118.83 49.6989 118.113 48.1036C117.578 46.9036 115.651 42.9226 113.837 39.2662C111.193 33.9581 110.532 32.5181 110.532 32.0663C110.532 31.4311 110.25 30.9511 109.828 30.8381C109.575 30.7675 109.547 30.8381 109.547 31.4593C109.547 32.1934 109.955 33.6051 110.349 34.2545C110.475 34.4522 110.771 34.8192 110.982 35.0592C111.305 35.4121 111.488 35.8921 111.868 37.3886C113.288 43.0496 114.906 46.3672 120.828 55.7411C122.178 57.8728 123.669 60.301 124.161 61.1621C125.103 62.8421 125.554 63.3503 126.088 63.3503C126.383 63.3503 126.426 63.4068 126.426 63.8585C126.426 64.2538 126.524 64.4515 126.876 64.7338C128.367 66.0044 128.592 66.2726 129.281 67.6984C129.998 69.1666 130.73 70.0702 131.306 70.2113C131.56 70.2819 131.602 70.3666 131.531 70.7054C131.363 71.5666 131.813 72.1031 132.685 72.1031C132.994 72.1031 133.036 72.1736 133.05 72.6677C133.065 72.9783 133.079 73.303 133.093 73.3877C133.093 73.4583 133.515 73.8677 134.021 74.263C135.16 75.1947 135.892 76.1547 136.201 77.1288L136.44 77.8912H137.101H137.777L137.762 78.4841C137.748 79.0629 137.777 79.0911 138.649 79.684C139.76 80.404 139.872 80.5734 139.577 81.124C139.155 81.9711 139.338 82.2675 140.294 82.2675C140.744 82.2675 140.801 82.324 141.054 82.8887C141.349 83.5804 141.757 83.8769 142.263 83.7781C142.685 83.7075 142.685 83.7498 142.249 84.2722C142.052 84.4981 141.926 84.738 141.968 84.8086C141.996 84.8651 142.376 85.091 142.812 85.2886C143.642 85.698 143.909 86.1639 143.6 86.658C143.515 86.7992 143.445 86.9403 143.445 86.9545C143.445 86.9827 143.923 86.9686 144.514 86.9545C145.513 86.9121 145.583 86.9262 145.484 87.1662C145.414 87.3074 145.358 87.6744 145.358 87.985C145.344 88.5497 145.344 88.5497 146.455 89.1426C147.876 89.9191 148.185 90.2014 148.298 90.9355C148.424 91.6414 148.551 91.8108 149.226 92.1496C149.577 92.3332 149.887 92.672 150.182 93.2084C150.548 93.8578 150.745 94.0414 151.293 94.2813C152.362 94.719 152.377 94.7331 152.334 95.3825C152.292 95.9048 152.334 95.9754 152.742 96.2295C152.995 96.3848 153.389 96.5542 153.6 96.5966C154.008 96.6954 154.078 96.7942 153.867 97.0342C153.685 97.2319 153.572 97.853 153.685 98.0366C153.741 98.1354 154.191 98.2201 154.697 98.2483C155.752 98.2907 155.893 98.5024 155.387 99.1942C154.88 99.8859 155.091 100.112 156.16 100.027C157.609 99.9 157.862 100.267 157.004 101.213C156.357 101.947 156.484 102.074 157.961 102.173C158.636 102.215 159.128 102.314 159.156 102.413C159.184 102.498 159.015 102.794 158.776 103.076C157.946 104.008 158.411 104.46 159.831 104.121C161.238 103.768 161.997 104.192 161.308 104.926C161.139 105.109 161.027 105.363 161.055 105.519C161.097 105.73 161.238 105.773 162.082 105.773C163.038 105.773 163.066 105.787 163.109 106.154C163.137 106.366 163.052 106.719 162.94 106.959C162.813 107.185 162.715 107.509 162.715 107.679C162.715 108.088 163.432 108.06 164.093 107.608C164.698 107.185 164.853 107.17 165.134 107.495C165.359 107.778 165.331 107.961 164.839 108.992C164.585 109.528 164.557 109.712 164.684 109.881C164.979 110.22 165.246 110.107 165.893 109.415C166.372 108.879 166.54 108.78 166.681 108.921C166.766 109.006 166.962 109.09 167.103 109.09C167.427 109.09 167.413 109.217 167.075 109.655C166.709 110.121 166.723 110.46 167.117 110.657C167.286 110.756 167.652 111.024 167.933 111.264C168.2 111.504 168.552 111.773 168.707 111.857C168.96 111.999 168.946 112.041 168.566 113.015C168.045 114.3 167.103 115.782 165.95 117.123C165.12 118.097 165.021 118.281 164.726 119.424C164.557 120.116 164.248 120.935 164.023 121.26C163.657 121.81 162.841 122.502 162.56 122.502C162.49 122.502 161.533 121.274 160.422 119.777C158.143 116.714 157.44 115.881 156.118 114.681C155.344 113.989 155.021 113.537 154.233 112.069C152.883 109.585 151.856 108.074 150.618 106.761C149.901 106.013 149.254 105.109 148.663 104.079C147.468 102.004 145.864 99.66 142.924 95.7354L140.491 92.4743V91.712C140.477 90.9638 140.463 90.9214 139.071 89.185C137.411 87.0956 136.553 85.8251 133.951 81.5617C131.728 77.9335 129.056 73.8395 127.495 71.6795C126.608 70.4513 126.426 70.0984 126.426 69.6608C126.426 68.9549 126.383 68.8843 122.262 61.995C116.341 52.0847 113.528 46.9601 113.682 46.3672C113.823 45.7884 113.485 44.2496 112.993 43.2331C112.74 42.6826 112.093 41.6379 111.572 40.9038C111.038 40.1697 110.349 39.0403 110.011 38.3909C109.491 37.4027 109.406 37.0921 109.406 36.3862C109.406 35.638 109.308 35.3557 108.562 33.8875C107.817 32.4052 105.834 29.4688 105.581 29.4688C105.426 29.4688 105.299 30.3017 105.398 30.7675C105.454 31.0075 105.693 31.6287 105.918 32.1369C106.143 32.6451 106.875 34.438 107.536 36.1039C108.956 39.7179 109.378 40.565 110.686 42.5555C111.952 44.4755 112.219 45.0966 112.219 46.0848C112.219 47.7507 114.259 51.8165 119.534 60.5974C122.923 66.2726 124.442 68.969 124.864 70.1407C125.174 70.9595 125.399 71.3548 127.199 74.2206C127.804 75.1947 128.592 76.5218 128.929 77.1853C129.59 78.4417 138.044 91.5002 143.009 98.9259C150.098 109.542 155.668 117.067 161.097 123.391L162.883 125.481L162.799 126.215C162.419 129.095 161.083 131.48 158.622 133.655C156.779 135.306 155.429 136.337 155.161 136.337C154.782 136.337 154.346 135.814 154.036 134.996C153.882 134.6 153.052 133.344 152.18 132.186C149.381 128.445 147.06 124.845 142.953 117.914C137.523 108.723 136.454 106.959 134.921 104.531C133.529 102.356 133.318 101.947 133.318 101.425C133.318 100.366 132.924 99.053 132.418 98.446C130.744 96.3707 129.337 93.8861 125.666 86.4321C124.091 83.2416 122.347 79.8958 121.798 78.9923C121.123 77.8629 120.659 76.8888 120.377 75.9853C119.801 74.2206 119.21 72.7948 117.072 68.1502C114.653 62.8986 113.893 61.0915 112.248 56.6305C111.474 54.5411 110.208 51.2377 109.434 49.3036C106.382 41.6238 106.171 41.0026 105.679 37.8686C105.426 36.2309 104.835 34.8616 104.188 34.3957L103.766 34.0992L103.836 34.5651C103.893 34.8333 104.047 35.8639 104.216 36.8803C104.694 39.972 105.538 43.6567 106.439 46.5507C107.184 48.9507 110.588 58.4092 111.966 61.868C113.049 64.6209 114.793 68.1643 115.862 69.8019L116.706 71.1148L116.467 71.7501C116.2 72.4842 116.298 72.7524 116.945 73.0913C117.171 73.2042 117.382 73.3171 117.41 73.3313C117.424 73.3454 117.283 73.5854 117.072 73.8536L116.692 74.3618L117.058 74.503C117.48 74.6583 117.705 75.1383 117.705 75.8583C117.705 76.3947 118.113 76.9029 118.549 76.9029C118.704 76.9029 118.83 76.9876 118.83 77.0865C118.83 77.1994 118.704 77.397 118.549 77.5382C118.394 77.6794 118.268 77.9476 118.268 78.1453C118.268 78.4841 118.296 78.4841 118.901 78.4135C119.505 78.3288 119.534 78.3288 119.759 78.837L120.012 79.3452L119.477 79.7688C118.985 80.164 118.971 80.1923 119.196 80.4464C119.365 80.644 119.632 80.7146 120.096 80.7146C120.56 80.7146 120.87 80.7993 121.137 81.0111C121.657 81.4205 121.573 81.844 120.884 82.1969C120.195 82.564 119.97 82.8887 120.181 83.2134C120.349 83.4675 120.659 83.4957 121.657 83.3122C122.108 83.2416 122.178 83.2698 122.248 83.5522C122.375 84.0181 122.178 84.2581 121.503 84.5122C120.785 84.7804 120.701 84.9357 121.039 85.3451C121.292 85.6416 121.306 85.6416 122.037 85.4298C122.445 85.3027 122.825 85.2463 122.867 85.2886C122.909 85.331 122.839 85.5286 122.712 85.7121C122.431 86.1498 122.417 86.7004 122.698 86.9262C122.811 87.0251 123.162 87.0956 123.472 87.0956C123.978 87.0815 124.035 87.1239 124.035 87.4345C124.035 87.7592 123.598 88.338 123.359 88.338C123.148 88.338 122.614 88.9168 122.698 89.0438C122.74 89.1144 123.317 89.3403 123.964 89.5379C125.005 89.8626 125.174 89.9615 125.258 90.272C125.329 90.5826 125.258 90.7238 124.907 91.0203C124.386 91.4438 124.358 91.5991 124.71 91.8955C125.103 92.2485 125.525 92.319 125.779 92.079C126.004 91.8391 126.285 91.8955 126.285 92.192C126.285 92.2767 126.116 92.5167 125.919 92.7284C125.441 93.2367 125.554 93.5614 126.215 93.5755C127.424 93.6178 127.579 93.9567 126.763 94.8602C126.369 95.3119 126.299 95.4531 126.44 95.6225C126.651 95.8766 127.087 95.8766 127.832 95.6084C128.156 95.4954 128.451 95.3966 128.465 95.3966C128.493 95.3966 128.535 95.5378 128.578 95.6931C128.634 95.919 128.55 96.1166 128.24 96.3989C127.832 96.7801 127.692 97.4154 127.973 97.5848C128.043 97.6272 128.296 97.5707 128.521 97.4436C129.14 97.133 129.422 97.1754 129.703 97.6695L129.956 98.1213L129.379 98.6436C128.986 99.0107 128.845 99.2365 128.901 99.4059C129.014 99.7024 129.52 99.9142 130.069 99.9142C130.533 99.9142 130.856 100.239 130.73 100.549C130.687 100.676 130.42 100.874 130.139 100.987C129.267 101.354 129.801 102.032 130.983 102.032H131.517L131.419 102.964C131.306 104.051 131.377 104.149 132.291 104.149C132.882 104.149 132.882 104.163 132.811 104.573C132.685 105.208 132.84 105.603 133.529 106.422C133.88 106.832 134.162 107.283 134.162 107.439C134.162 107.58 133.965 107.905 133.726 108.145C133.332 108.54 133.304 108.596 133.529 108.752C133.712 108.893 133.88 108.893 134.345 108.723C135.006 108.497 135.371 108.568 135.498 108.949C135.61 109.316 135.498 109.486 134.921 109.726C134.612 109.853 134.443 110.022 134.443 110.192C134.443 110.516 134.64 110.615 135.695 110.841C136.117 110.926 136.482 111.067 136.511 111.152C136.539 111.222 136.342 111.406 136.061 111.533C135.695 111.716 135.568 111.857 135.568 112.126C135.568 112.521 135.639 112.535 136.848 112.493C137.481 112.464 137.65 112.493 137.734 112.704C137.875 113.071 137.72 113.41 137.312 113.594C137.017 113.721 136.961 113.834 137.003 114.215L137.045 114.667L137.931 114.639C138.761 114.596 138.803 114.61 138.803 114.921C138.803 115.104 138.649 115.401 138.452 115.584C138.255 115.768 138.1 115.994 138.1 116.093C138.1 116.304 138.944 116.573 139.633 116.573C140.238 116.573 140.632 116.911 140.632 117.434C140.632 117.758 140.533 117.886 140.154 118.041C139.9 118.154 139.633 118.309 139.577 118.408C139.408 118.69 139.872 119.001 140.66 119.128C141.954 119.34 142.137 120.102 141.026 120.624C140.308 120.963 140.154 121.316 140.576 121.669C140.758 121.824 140.955 121.796 141.771 121.514C142.671 121.203 142.756 121.189 142.967 121.401C143.276 121.711 143.135 122.022 142.573 122.262C141.996 122.502 141.729 122.827 141.841 123.123C141.94 123.377 142.123 123.405 143.628 123.363L144.711 123.321V123.758C144.711 124.111 144.542 124.379 144.008 124.958C143.22 125.791 143.009 126.412 143.375 126.779C143.642 127.048 143.909 126.963 144.626 126.356C145.077 125.975 145.513 125.975 145.752 126.342C145.963 126.681 145.738 127.019 145.133 127.316C144.556 127.598 144.303 127.937 144.387 128.304C144.5 128.713 144.992 128.77 145.695 128.445C146.455 128.092 146.863 128.078 147.102 128.361C147.369 128.685 147.158 129.222 146.61 129.561C146.061 129.899 145.78 130.323 145.892 130.633C145.991 130.888 146.919 130.888 147.383 130.619C147.777 130.393 148.621 130.351 148.916 130.535C149.254 130.746 148.973 131.099 148.171 131.452C147.369 131.805 147.088 132.229 147.383 132.596C147.608 132.864 148.03 132.864 148.79 132.596C149.113 132.483 149.479 132.384 149.577 132.384C149.929 132.384 149.774 132.793 149.282 133.175C148.888 133.471 148.79 133.64 148.79 134.036C148.79 134.615 149.043 134.742 149.62 134.445C149.845 134.318 150.239 134.219 150.478 134.219C151.082 134.219 151.054 134.727 150.407 135.349C149.915 135.829 149.76 136.323 150.098 136.351C150.323 136.379 150.309 136.379 151.012 136.125C152.25 135.687 152.053 136.054 150.14 137.819C149.141 138.751 147.102 140.699 145.625 142.167C142.657 145.104 142.854 145.005 141.898 144.059C141.265 143.438 140.899 142.718 140.125 140.643C139.76 139.626 138.522 136.958 137.383 134.713C134.879 129.758 134.302 128.403 133.247 125.114C132.347 122.248 131.869 121.02 129.07 114.314C126.594 108.356 125.047 104.799 123.767 102.116C123.219 100.959 122.572 99.3777 122.333 98.5871C121.348 95.3543 120.462 92.9402 118.127 87.0674C117.185 84.6957 115.919 81.4205 115.3 79.7829C114.695 78.1453 113.935 76.1406 113.612 75.3359C112.641 72.8936 112.093 71.1572 111.572 68.7855C110.883 65.6091 110.7 64.9879 108.97 59.821C108.126 57.294 107.156 54.1317 106.818 52.7906C106.34 50.9412 105.96 49.8542 105.243 48.273C104.399 46.4095 104.202 45.7743 103.274 42.0614C102.134 37.4733 101.516 35.4545 100.7 33.7887C100.123 32.5887 100.095 32.5887 99.9121 33.8592C99.7434 35.1721 100.193 36.9509 101.389 39.7179C102.5 42.259 102.796 43.219 102.95 44.8566C103.232 47.9342 103.358 48.6542 104.047 50.8565C104.427 52.0988 105.257 54.8658 105.89 56.9975C106.523 59.1292 107.395 61.8962 107.817 63.1385C110.968 72.343 112.135 76.0559 113.26 80.404C113.767 82.3805 114.076 83.2134 115.131 85.5145C120.265 96.6248 122.262 101.552 125.722 111.561C127.734 117.377 129.829 122.234 130.73 123.123C131.18 123.589 131.349 123.914 131.545 124.69C132.333 127.669 133.838 131.269 136.862 137.466C138.93 141.687 140.772 145.824 141.265 147.334C141.56 148.252 141.476 148.478 140.393 149.466C139.492 150.285 137.861 151.146 135.02 152.275C132.755 153.193 131.672 153.701 131.039 154.153C130.645 154.421 130.645 154.421 130.223 154.125C129.703 153.758 129.408 153.193 128.775 151.372C128.507 150.595 127.635 148.28 126.848 146.219C122.951 136.069 121.32 130.958 120.223 125.396C119.913 123.758 119.393 122.502 119.041 122.502C118.929 122.502 118.83 122.46 118.83 122.417C118.83 122.163 116.664 112.592 116.313 111.279C116.087 110.417 115.609 108.639 115.258 107.326C114.47 104.432 114.484 104.46 112.824 100.422C111.207 96.4978 110.714 95.0296 109.955 91.7826C109.631 90.385 109.027 87.8156 108.619 86.051C108.197 84.2863 107.479 80.884 107.001 78.4982C106.537 76.1124 105.974 73.1901 105.735 72.0325C105.51 70.8607 104.723 67.4726 103.991 64.4797C102.12 56.8281 100.742 50.2777 99.2651 42.2167C98.9979 40.7908 98.7447 39.6332 98.6884 39.6332C98.4915 39.6332 98.5759 44.8143 98.7869 46.946C99.3073 51.9012 100.672 59.5104 101.867 63.9997C103.049 68.4325 103.203 69.1949 103.429 71.9619C103.654 74.6159 103.752 75.0677 104.329 75.7736C104.694 76.2394 104.723 76.31 104.54 76.6347C104.301 77.0723 104.287 77.9194 104.54 78.4982C104.638 78.7523 104.976 79.2746 105.285 79.6699C105.792 80.3052 105.834 80.404 105.665 80.644C105.271 81.1805 105.426 81.9852 106.228 83.5381L106.987 85.0063L106.65 85.2745C106.199 85.6133 106.228 85.7263 106.804 86.3757C107.339 86.9686 107.437 87.505 107.086 87.9709C106.776 88.3944 106.832 88.705 107.297 89.0862C107.817 89.5238 107.831 89.792 107.367 90.0885C106.692 90.5261 106.959 90.992 108.014 91.2179C108.745 91.3732 108.576 92.3473 107.817 92.4602C107.648 92.4885 107.493 92.6155 107.465 92.7567C107.423 92.9402 107.62 93.0955 108.197 93.3637C109.406 93.9143 109.519 94.4931 108.478 94.8319C108.197 94.9307 107.929 95.1284 107.873 95.3119C107.676 95.8343 107.831 95.9895 108.619 95.9472C109.027 95.9331 109.434 95.9613 109.519 96.0178C109.842 96.2154 109.688 96.7095 109.111 97.2178C108.464 97.8248 108.52 97.9519 109.547 98.2201C110.785 98.5307 110.982 99.0107 110.11 99.5895C109.35 100.084 109.266 100.182 109.266 100.535C109.266 100.945 109.491 101.044 110.391 101.044C111.629 101.044 111.952 101.891 110.954 102.526C110.644 102.724 110.391 102.978 110.391 103.091C110.391 103.203 110.757 103.486 111.221 103.712C111.671 103.952 112.079 104.234 112.135 104.361C112.29 104.799 112.219 104.996 111.91 104.996C110.996 105.011 110.503 105.547 110.897 106.112C111.08 106.366 111.249 106.408 112.023 106.408C112.895 106.408 112.923 106.422 112.923 106.761C112.923 107.015 112.768 107.213 112.36 107.467C111.868 107.778 111.812 107.862 111.938 108.102C112.135 108.469 112.627 108.78 113.176 108.893C113.795 109.02 113.809 109.542 113.204 109.796C112.684 110.022 112.501 110.319 112.599 110.827C112.67 111.194 112.712 111.208 113.485 111.208C114.273 111.208 114.315 111.236 114.526 111.646C114.793 112.182 114.751 112.267 114.006 112.634C112.698 113.297 112.684 113.749 113.964 113.749C114.751 113.749 115.131 113.947 115.201 114.37C115.229 114.596 115.131 114.681 114.653 114.78C114.118 114.879 114.048 114.935 114.048 115.288C114.048 115.754 114.203 115.909 114.92 116.135C115.384 116.29 115.595 116.516 115.595 116.869C115.595 116.94 115.342 116.996 115.019 116.996C114.484 116.996 114.456 117.01 114.498 117.391C114.526 117.702 114.695 117.857 115.384 118.196C115.862 118.436 116.242 118.733 116.27 118.874C116.341 119.241 116.045 119.537 115.581 119.537C115.272 119.537 115.173 119.608 115.173 119.805C115.173 120.158 115.469 120.384 116.073 120.483C116.355 120.525 116.58 120.582 116.58 120.61C116.58 120.638 116.481 120.878 116.355 121.147C116.017 121.838 116.172 122.29 116.861 122.587C117.607 122.925 117.635 123.391 116.931 123.73C116.439 123.97 116.172 124.45 116.369 124.747C116.411 124.831 116.749 124.902 117.114 124.902C118.029 124.902 118.38 125.029 118.493 125.368C118.563 125.594 118.479 125.763 118.141 126.059C117.789 126.384 117.564 126.455 117.002 126.455C116.341 126.455 116.298 126.483 116.298 126.822C116.298 127.274 116.974 127.584 118.029 127.584C118.465 127.584 118.887 127.669 119.055 127.782C119.294 127.979 119.308 128.008 119.098 128.219C118.985 128.346 118.661 128.558 118.394 128.685C117.86 128.953 117.705 129.405 118.057 129.702C118.183 129.801 118.605 129.956 118.999 130.041C119.674 130.196 119.702 130.224 119.477 130.45C119.337 130.577 119.069 130.732 118.858 130.775C118.141 130.93 117.846 131.099 117.846 131.396C117.846 131.692 118.366 132.003 119.126 132.158C119.477 132.229 119.505 132.285 119.477 132.977C119.463 133.697 119.463 133.697 120.096 134.078C120.94 134.572 120.926 134.897 120.04 135.349C119.224 135.758 119.126 135.927 119.519 136.323C119.759 136.563 119.998 136.619 120.659 136.619C121.461 136.619 121.503 136.633 121.503 136.972C121.503 137.24 121.376 137.382 120.982 137.565C120.42 137.833 120.237 138.313 120.504 138.737C120.631 138.92 120.715 138.92 121.109 138.751C121.967 138.398 122.136 138.454 122.178 139.118C122.22 139.598 122.164 139.739 121.925 139.866C121.77 139.951 121.503 139.979 121.362 139.937C121.165 139.866 121.081 139.909 121.081 140.078C121.081 140.431 121.7 140.967 122.304 141.123C122.6 141.207 122.966 141.363 123.12 141.476C123.373 141.659 123.373 141.687 123.148 142.026C123.022 142.224 122.614 142.563 122.248 142.774C121.868 142.986 121.559 143.184 121.531 143.198C121.503 143.212 121.559 143.367 121.643 143.537C121.798 143.819 121.897 143.833 122.881 143.791L123.964 143.748V144.313C123.964 144.85 123.95 144.878 123.303 145.061C122.431 145.301 122.389 145.668 123.191 146.078C123.795 146.388 124.245 146.445 124.386 146.219C124.527 145.993 124.878 146.332 124.78 146.586C124.738 146.685 124.499 146.911 124.231 147.08C123.289 147.659 123.753 148.619 124.977 148.619C125.765 148.619 125.779 148.901 124.991 149.706C124.245 150.468 124.386 150.68 125.694 150.807C127.016 150.934 127.227 150.991 127.326 151.245C127.565 151.88 126.932 152.289 125.75 152.289C125.132 152.289 125.132 152.289 125.329 152.614C125.455 152.784 125.891 153.052 126.355 153.207C126.805 153.362 127.199 153.56 127.227 153.645C127.298 153.842 125.75 154.266 123.162 154.76C120.293 155.296 118.127 156.059 117.578 156.722C117.466 156.849 117.339 156.948 117.283 156.948C117.114 156.948 116.355 155.282 115.961 154.054C115.426 152.445 114.962 150.017 114.47 146.29C113.739 140.784 113.246 138.186 112.641 136.393C112.304 135.419 112.29 134.742 112.585 134.502C113.092 134.064 113.092 133.838 112.585 132.553C111.376 129.518 110.743 126.384 109.758 118.761C108.802 111.363 108.436 109.302 107.156 104.502C105.806 99.3918 105.384 97.2883 105.243 94.8319L105.145 93.3073L105.524 92.9402L105.918 92.5873L105.37 92.3049C105.06 92.1496 104.737 91.9379 104.638 91.8249C104.357 91.472 101.797 76.4371 100.545 67.7267C99.8559 62.9268 99.3917 60.061 97.6617 50.0094C96.1566 41.2426 95.7628 38.0238 95.805 35.0874L95.8331 33.0263L95.4112 32.4193C94.7501 31.4875 94.6376 31.544 94.6376 32.7581C94.6376 40.7626 97.0568 59.5104 100.7 79.5852C102.725 90.7944 102.725 90.7661 103.625 93.6037C104.483 96.2719 104.596 96.8648 104.694 99.4624C104.807 102.201 105.13 104.036 106.298 108.921C107.508 113.919 107.634 114.624 108.759 122.078C110.391 132.765 112.402 144.723 114.329 154.972C114.709 157.033 115.033 158.755 115.033 158.812C115.033 158.967 113.626 159.729 112.445 160.195C109.111 161.536 105.257 161.833 102.289 160.957L101.572 160.76L101.487 157.259C101.192 146.205 100.165 135.264 96.9443 109.09C96.2692 103.556 95.4252 96.2295 94.8345 90.6673C94.3985 86.658 94.3141 85.3027 94.2156 80.8558C94.1593 77.9759 93.9765 74.0795 93.8077 72.0325C92.7528 58.8751 92.6403 57.0258 92.5981 52.7623C92.5559 48.3718 92.5137 47.4401 92.1761 44.5743C91.9229 42.4849 91.6276 40.9885 91.1493 39.5062C90.6992 38.0662 90.6711 38.1368 90.4179 41.3414C90.1507 44.8425 90.2913 48.8518 90.7555 50.8565C91.2056 52.7623 91.2056 52.9176 90.7696 53.327C90.3617 53.7082 90.3335 53.9764 90.6289 54.9505C90.7836 55.4446 90.8399 56.2352 90.8258 57.6751C90.8258 59.5528 90.8399 59.7645 91.1634 60.3998L91.501 61.0915H91.1212C90.2632 61.0915 90.1929 61.868 91.0227 62.2633C91.4025 62.4609 91.5432 62.6162 91.5432 62.8562C91.5432 63.2656 91.2056 63.6327 90.8258 63.6327C90.4742 63.6327 90.4883 63.6891 90.9805 64.4091C91.5713 65.2703 91.5713 65.5808 91.0087 65.9761L90.5445 66.3008L91.2478 66.8091C91.6416 67.0914 91.9651 67.3596 91.9651 67.402C91.9651 67.4302 91.7119 67.7267 91.3884 68.0373L90.8118 68.602L91.2618 68.9831L91.6979 69.3502L91.4728 70.0843C91.2618 70.776 91.2759 70.8325 91.5432 71.2842C91.6979 71.5384 91.8948 72.0748 91.9792 72.4842C92.1339 73.1477 92.1199 73.2607 91.8948 73.5148C91.7541 73.6701 91.5572 73.7971 91.4447 73.7971C91.304 73.7971 91.3322 73.9524 91.5713 74.3901C91.8526 74.9265 91.8948 75.2794 91.9651 77.4676C92.0355 79.7123 92.0636 79.9946 92.359 80.4887C92.7528 81.1522 92.6825 81.4205 92.1058 81.4205C91.4728 81.4205 91.5291 81.9428 92.2464 82.5922C92.9778 83.2416 93.006 83.6792 92.3308 83.6792C92.0636 83.6792 91.7963 83.7498 91.7541 83.8345C91.6979 83.9051 91.9229 84.371 92.2324 84.8369C93.006 85.9945 92.9778 86.4039 92.1058 86.5309C91.8385 86.5592 91.7541 86.658 91.7541 86.9121C91.7541 87.1803 91.9089 87.3497 92.3871 87.6321C93.3717 88.2109 93.5545 89.185 92.6684 89.185C92.1058 89.185 92.0073 89.4815 92.373 90.0744C92.7809 90.7379 92.7528 91.0061 92.2464 91.1755C92.0214 91.2602 91.8245 91.3873 91.8245 91.4579C91.8245 91.6696 92.3449 92.1214 92.9638 92.432L93.5405 92.7426L93.1888 93.1096C92.4152 93.9284 92.4434 94.5213 93.2732 94.8319C93.8218 95.0296 93.7233 95.3966 93.0482 95.7354C92.359 96.0742 92.3871 96.4837 93.1185 96.8789C93.8358 97.2601 93.8218 97.613 93.0904 97.9095C92.2886 98.2201 92.359 98.6436 93.231 98.8554C93.7233 98.9824 93.8921 99.0954 94.0046 99.4059C94.1593 99.8577 93.9624 100.055 93.3435 100.055C92.7809 100.055 92.8231 100.564 93.4561 101.312L93.9765 101.905L93.5827 102.314L93.2029 102.709L93.4983 103.006C93.6811 103.189 93.9765 103.302 94.2859 103.302C94.6798 103.302 94.7782 103.359 94.7782 103.571C94.7782 103.923 94.4125 104.291 94.075 104.291C93.9343 104.291 93.6952 104.403 93.5264 104.531C93.2732 104.756 93.2592 104.827 93.4139 105.123C93.4983 105.321 93.864 105.674 94.2156 105.914C94.9048 106.394 95.2283 107.001 94.947 107.283C94.8626 107.368 94.4407 107.439 93.9906 107.425C93.3295 107.41 93.217 107.439 93.2873 107.622C93.3295 107.749 93.3717 107.905 93.3717 107.975C93.3717 108.046 93.7233 108.328 94.1453 108.596C94.5672 108.865 94.9892 109.232 95.0736 109.387C95.3268 109.867 95.0314 110.319 94.3281 110.516C93.5827 110.728 93.3717 110.883 93.3717 111.222C93.3717 111.575 93.5686 111.66 94.5532 111.759C95.2705 111.829 95.4112 111.886 95.4534 112.126C95.5237 112.606 95.158 112.93 94.4547 113.001C93.3717 113.128 93.4139 113.58 94.5391 114.003C95.7628 114.469 95.7628 115.02 94.5391 115.316C93.7655 115.514 93.5264 115.881 93.9343 116.29C94.1312 116.488 94.3985 116.573 94.8908 116.573C95.9738 116.573 96.5364 117.194 95.9457 117.744C95.805 117.857 95.3268 118.097 94.8767 118.267L94.0609 118.577L94.3985 119.015C94.933 119.721 95.4252 120.017 96.0441 120.031C96.5505 120.031 96.6067 120.06 96.6067 120.398C96.6067 120.681 96.5083 120.808 96.1848 120.935C95.9597 121.02 95.58 121.161 95.3549 121.245C94.4547 121.584 94.7079 122.248 95.8753 122.587C96.3114 122.714 96.7755 122.897 96.8881 123.01C97.1975 123.307 96.9021 123.659 96.1848 123.871C95.4112 124.097 95.2002 124.281 95.2002 124.775C95.2002 125.269 95.3127 125.339 96.3395 125.424C97.296 125.523 97.5351 125.763 97.3803 126.469C97.2678 126.949 97.1834 126.963 96.3114 126.652C95.383 126.314 95.2002 126.426 95.2002 127.358C95.2002 128.389 95.4815 128.713 96.3958 128.812C97.6476 128.925 97.732 128.968 97.732 129.405C97.732 129.984 97.4225 130.153 96.2551 130.238C95.2846 130.295 95.2002 130.323 95.2002 130.605C95.2002 131.071 95.5659 131.48 96.3254 131.904C97.1834 132.37 97.2397 132.709 96.5364 133.005C95.9457 133.259 95.8472 133.471 96.0441 134.007C96.1848 134.389 96.227 134.389 96.9162 134.318C97.7461 134.219 98.154 134.389 98.154 134.84C98.154 135.264 97.7601 135.603 97.1553 135.716C96.5083 135.843 96.0441 136.153 96.0441 136.464C96.0441 136.859 96.3395 137.029 97.2538 137.127C98.3509 137.254 98.5759 137.382 98.5759 137.89C98.5759 138.384 98.2665 138.511 97.3803 138.37C96.9584 138.313 96.6771 138.341 96.5364 138.454C96.2551 138.694 96.2551 139.852 96.5505 140.276C96.7474 140.544 96.874 140.586 97.3663 140.544C99.0119 140.36 98.9697 141.25 97.31 141.8C96.663 142.012 96.5224 142.111 96.4942 142.421C96.438 142.93 96.8318 143.212 97.8304 143.381C98.8854 143.551 99.2792 143.748 99.2792 144.087C99.2792 144.511 98.9416 144.68 97.8867 144.793C96.8037 144.906 96.3817 145.16 96.5224 145.612C96.663 146.035 97.4085 146.388 98.379 146.473C99.2511 146.544 99.2792 146.544 99.2792 146.939C99.2792 147.461 98.9416 147.631 97.957 147.631C97.3382 147.631 97.1694 147.673 97.1694 147.857C97.1694 148.28 97.4647 148.619 98.154 148.972C98.5337 149.155 98.8854 149.381 98.9276 149.466C99.0963 149.748 98.5759 150.129 97.9008 150.228C96.8881 150.369 96.8318 150.44 97.1834 151.231C97.4647 151.852 97.4788 152.064 97.3944 153.758C97.2819 155.861 97.4085 156.327 98.2524 156.892C98.7025 157.202 98.7166 157.202 98.4634 157.513C98.2946 157.71 98.0414 157.838 97.7601 157.852C97.5069 157.852 97.31 157.936 97.31 158.021C97.31 158.289 97.957 158.783 98.6181 159.009C98.9838 159.136 99.2792 159.277 99.2792 159.348C99.2792 159.405 99.0119 159.574 98.6884 159.715C98.168 159.927 97.4929 159.983 94.2156 160.054C91.9511 160.11 90.1929 160.209 89.9819 160.308L89.6021 160.463L89.4896 156.694C89.4193 154.619 89.3911 144.948 89.4333 135.207C89.5459 106.422 89.5037 87.9991 89.3208 78.597C89.2224 73.7407 89.0817 66.4985 89.0114 62.5033C88.8988 55.6846 88.8707 54.9223 88.3925 50.2777C87.9002 45.2943 87.7595 42.372 87.9565 40.2685C88.069 38.9697 87.9002 38.1368 87.4079 37.558L87.0844 37.1909L86.9859 41.7649C86.8593 47.6519 87.1125 62.6727 87.4642 71.1007C87.858 80.3052 87.9424 87.9144 87.7455 97.5142C87.5064 108.653 87.5064 109.133 87.7173 112.69C87.9846 117.194 88.0268 151.894 87.7736 154.972C87.5626 157.555 87.0985 161.339 86.8593 162.524L86.6765 163.371L86.0576 163.484C84.8339 163.71 83.1601 163.499 81.2191 162.877C79.4187 162.313 79.3906 162.299 77.4917 162.341C75.7476 162.369 75.5225 162.341 74.9881 162.059C74.6505 161.889 74.3832 161.663 74.3832 161.564C74.3832 161.466 74.5942 160.336 74.8615 159.066C76.7181 150.172 77.5339 141.941 78.5326 122.361C79.2218 108.695 79.475 105.123 81.205 84.1028C83.0335 61.9386 83.5399 53.7647 83.7509 42.132L83.8493 37.078L83.4836 37.2474C82.696 37.6144 82.6116 37.9109 82.5975 40.692C82.5975 42.8802 82.5412 43.5296 82.1896 45.4213C81.8098 47.426 81.7817 47.8777 81.7676 50.8565C81.7676 54.1035 81.7676 54.1035 81.3879 54.767L81.0222 55.4305L81.2894 55.9528C81.5285 56.4328 81.5285 56.4893 81.3175 56.6446C81.1347 56.7858 81.1206 56.941 81.2191 57.6469C81.3738 58.7481 81.3316 58.9739 80.9096 59.4116L80.558 59.7786L80.994 60.1316L81.4301 60.4704L81.0644 61.4162C80.6705 62.4609 80.6283 63.0256 80.8815 63.7174C81.0081 64.0985 80.98 64.395 80.6424 65.6656C80.2345 67.1902 80.2345 67.402 80.6565 68.5031C80.6986 68.602 80.5439 68.9125 80.3048 69.1808C80.0657 69.449 79.8688 69.7172 79.8688 69.7596C79.8688 69.816 80.0235 70.0702 80.2064 70.3102C80.7971 71.1007 80.7971 71.3407 80.1923 71.6372C79.5312 71.9478 79.4328 72.3854 79.911 72.8654C80.2204 73.176 80.2345 73.2324 80.0235 73.4301C79.8688 73.5854 79.7703 74.0089 79.7281 74.6865L79.6578 75.703L79.1655 75.8583C78.4622 76.0841 78.4763 76.3947 79.2218 76.8324C79.5593 77.03 79.8829 77.2982 79.925 77.4112C79.9672 77.5241 79.8266 77.99 79.6015 78.4276C78.9264 79.7829 78.8279 80.2064 79.0811 80.7005C79.3906 81.2934 79.3624 81.5475 78.9545 81.7311C78.7576 81.8158 78.6029 81.9993 78.6029 82.1405C78.6029 82.2816 78.7576 82.5075 78.9545 82.6346C79.4046 82.931 79.3906 83.1287 78.9405 83.6651C78.5748 84.1028 78.5748 84.1169 78.7998 84.6816C79.0108 85.2039 79.0108 85.3169 78.7998 86.1215C78.6591 86.658 78.6029 87.2368 78.6591 87.6321C78.842 89.0156 78.842 88.9591 78.3778 89.1144L77.9277 89.2556L78.2653 89.8909C78.617 90.5826 78.7154 91.4155 78.4341 91.4014C77.4636 91.3732 77.4073 91.5708 78.1106 92.6014C78.7013 93.4484 78.7013 93.8155 78.1106 94.1261C77.8855 94.239 77.6605 94.3519 77.6324 94.3661C77.5058 94.4366 78.0543 95.1002 78.3216 95.1849C78.7576 95.326 78.5888 95.5943 78.0262 95.679C77.3511 95.7778 77.2948 96.3142 77.8855 96.9919C78.1247 97.2601 78.3216 97.5848 78.3216 97.6977C78.3216 98.0083 77.8715 98.2342 77.6042 98.0648C77.2807 97.853 77.1963 97.9095 77.1963 98.3895C77.1963 98.7283 77.337 98.9542 77.7871 99.3636C78.3497 99.9 78.3638 99.9142 78.1106 100.197C77.9559 100.366 77.6746 100.479 77.3792 100.479C76.9854 100.479 76.915 100.521 76.915 100.818C76.915 101.029 77.0979 101.298 77.4073 101.566C78.0403 102.074 78.1247 102.611 77.5902 102.667C77.3933 102.695 77.0557 102.808 76.8447 102.921L76.4509 103.119L77.0979 103.655C77.773 104.22 78.1387 104.855 77.9699 105.152C77.8996 105.251 77.6464 105.279 77.2526 105.222C76.4087 105.109 76.2118 105.222 76.2118 105.773C76.2118 106.225 76.2539 106.253 76.7884 106.366C77.5761 106.521 77.7871 106.846 77.3792 107.283C76.8025 107.905 76.7462 108.314 77.1119 109.203C77.7308 110.714 77.759 110.629 76.7462 110.672C75.9445 110.714 75.8601 110.742 75.9023 110.996C75.9304 111.152 76.1274 111.547 76.3665 111.872C76.8869 112.606 76.8869 112.817 76.3524 113.043C76.1274 113.142 75.9304 113.269 75.9304 113.326C75.9304 113.396 76.2539 113.721 76.6478 114.06C77.1823 114.526 77.3229 114.737 77.2526 114.921C77.1401 115.217 76.6478 115.443 76.1274 115.443C75.5788 115.443 75.6913 115.951 76.3524 116.361C76.6618 116.558 76.915 116.784 76.915 116.855C76.915 116.926 76.7181 117.307 76.4931 117.674C75.9304 118.605 75.9445 118.987 76.5775 119.509C77.2948 120.102 77.1963 120.441 76.3102 120.497L75.621 120.54L75.8742 120.921C76.0711 121.217 76.1414 121.584 76.1414 122.587C76.1414 123.617 76.1977 123.942 76.3946 124.154C76.5212 124.309 76.6337 124.563 76.6337 124.732C76.6337 125.17 75.9726 125.89 75.5647 125.89C75.0021 125.89 75.2272 126.723 75.9867 127.429C76.4368 127.852 76.2961 128.163 75.5085 128.572C75.199 128.728 74.9459 128.925 74.9459 129.01C74.9459 129.208 75.9304 130.196 76.1977 130.281C76.4931 130.379 76.1414 130.859 75.4803 131.269C74.8193 131.692 74.8052 131.975 75.4522 132.285C75.9023 132.511 75.9445 132.568 75.9023 133.062C75.8601 133.556 75.8179 133.598 75.185 133.796C74.5942 133.979 74.5239 134.05 74.552 134.36C74.5802 134.6 74.7771 134.812 75.199 135.038C75.8038 135.377 76.1555 135.814 76.0008 136.054C75.9586 136.139 75.6632 136.196 75.3538 136.196C74.7067 136.196 74.2426 136.393 74.2426 136.676C74.2426 136.93 74.9177 137.509 75.4944 137.734C75.7335 137.847 75.9304 138.017 75.9304 138.116C75.9304 138.356 75.4241 138.68 74.8474 138.807C73.8628 139.005 73.905 139.64 74.9177 140.163C75.9726 140.699 75.8601 141.56 74.7208 141.56C74.0879 141.56 74.0175 141.885 74.5239 142.464C75.185 143.212 75.1006 143.466 74.0316 143.819C73.5252 143.988 73.1173 144.158 73.1173 144.186C73.1173 144.468 73.483 144.807 73.9191 144.948C74.6083 145.174 74.9459 145.485 74.9459 145.866C74.9459 146.275 74.6786 146.501 74.0457 146.6C73.6237 146.671 73.5393 146.741 73.5393 147.01C73.5393 147.264 73.68 147.405 74.0738 147.588C74.3973 147.744 74.6083 147.955 74.6364 148.139C74.6786 148.393 74.5802 148.449 74.116 148.534C73.5393 148.619 73.1173 149.028 73.1173 149.494C73.1173 149.635 73.3705 149.904 73.68 150.101C74.4817 150.609 74.4395 150.962 73.5674 151.075C73.1877 151.118 72.7657 151.245 72.625 151.358C72.3859 151.527 72.3719 151.584 72.5547 151.795C72.6672 151.936 73.0048 152.191 73.2861 152.374C73.8769 152.755 74.0175 153.278 73.5393 153.278C73.3705 153.278 73.047 153.376 72.822 153.503C72.4 153.715 72.4 153.729 72.6391 154.012C72.7798 154.167 73.1033 154.379 73.3565 154.478C74.1863 154.831 73.8909 155.339 72.7798 155.48C72.2734 155.551 72.1328 155.621 72.2031 155.79C72.4985 156.553 72.836 158.261 72.836 158.953C72.836 159.405 72.822 159.772 72.7938 159.772C72.7657 159.772 72.3156 159.546 71.767 159.277C69.4322 158.092 66.9566 157.527 63.595 157.414L61.1617 157.329V156.863C61.1617 156.609 61.0913 156.383 61.0069 156.355C60.8944 156.313 61.1054 154.972 61.6961 152.007C62.1603 149.635 62.9339 145.386 63.3981 142.548C63.8622 139.711 64.7202 134.487 65.311 130.93C66.9707 120.78 67.7302 117.18 68.9821 113.283C69.9245 110.389 70.0511 109.825 70.1636 108.455C70.262 107.156 70.3605 106.747 70.7403 105.928L71.1904 104.954L71.3029 101.481C71.4154 97.5848 71.4295 97.486 72.822 90.8085C74.7208 81.7028 77.5058 65.962 78.4622 58.9034C79.475 51.4353 80.136 42.9931 80.1501 37.6144V36.3721L79.7422 36.5839C79.0249 36.965 78.8561 37.5721 78.9545 39.5344C79.053 41.4402 79.0389 41.5955 76.8588 57.9151C76.2821 62.2633 75.6773 67.0208 75.5085 68.5031C75.3397 69.9855 75.0303 71.9054 74.8052 72.8089C73.7644 76.9594 72.7938 82.3381 71.2185 92.7143C69.2493 105.575 68.6164 108.78 66.5628 116.22C65.0859 121.556 65.0015 121.852 64.6921 123.278C64.2983 125.057 63.5387 129.645 62.7089 135.278C61.3023 144.892 60.6694 148.421 59.6004 152.784C58.5877 156.934 58.3345 157.71 57.9547 157.767C57.7859 157.795 57.6453 157.866 57.6453 157.936C57.6453 158.148 56.7029 158.374 56.295 158.275C56.0699 158.219 55.5495 157.922 55.1275 157.626C54.1711 156.906 53.4256 156.652 50.7813 156.101C48.1511 155.565 47.2368 155.24 46.5195 154.562C45.8584 153.913 45.8443 153.687 46.3225 151.936C46.5195 151.231 46.8008 149.918 46.9555 149.014C47.3071 146.953 47.6869 145.654 48.9106 142.224C50.5563 137.636 50.6406 137.311 50.8938 134.713C51.1189 132.497 51.2314 132.045 52.3988 129.024C53.2287 126.822 53.5522 125.777 54.0023 123.659C55.2541 117.702 57.0123 111.053 59.741 101.961C60.2052 100.408 60.81 98.3189 61.0773 97.3166C61.4289 96.0037 61.668 95.3966 61.9212 95.1284C62.2728 94.7613 62.2869 94.6766 62.2588 93.4061C62.2306 92.0932 62.2306 92.0508 63.0183 90.032C66.1127 81.9852 66.394 81.0534 67.6177 74.5736C68.6867 68.969 69.0946 67.3879 70.1073 64.9738C70.7825 63.3503 71.0919 62.3621 71.4295 60.7386C71.6686 59.5669 72.3719 56.574 72.9907 54.0611C73.5956 51.5482 74.327 48.4001 74.6083 47.073C75.6773 41.9061 76.479 38.7721 77.1541 37.0074C77.2807 36.6686 76.69 36.7815 76.2118 37.1768C75.5647 37.7274 75.1287 38.6732 73.4549 43.1202C73.0611 44.1649 72.8923 45.1672 72.6954 47.5389C72.4703 50.2777 72.2734 51.6894 72.0624 51.9153C71.964 52.0282 71.8233 52.3106 71.7811 52.5506C71.6405 53.1576 71.3169 53.6094 71.0356 53.6094C70.8387 53.6094 70.7965 53.7647 70.7825 54.6399C70.7825 55.9387 70.248 57.4916 69.4462 58.5645C68.8414 59.3833 68.7992 59.5951 69.1087 60.6115C69.2212 60.9927 69.3196 61.5433 69.3196 61.8256V62.3621H68.6164C68.1522 62.3621 67.9131 62.4186 67.899 62.5315C67.8568 62.9409 67.9694 63.1527 68.3632 63.4915C68.6445 63.7315 68.7711 63.9574 68.743 64.1268C68.6867 64.3668 68.546 64.4091 67.8287 64.4515L66.9848 64.4938L67.041 65.8632C67.0692 66.6396 67.1817 67.4161 67.2942 67.642C67.5474 68.1643 67.5474 68.1502 67.2098 68.1502C66.8301 68.1502 66.2252 68.4467 66.2252 68.6443C66.2252 68.729 66.4503 69.0114 66.7175 69.2796C67.0973 69.6466 67.2098 69.8725 67.2098 70.2396C67.2098 70.7054 67.1958 70.7196 66.7597 70.6631C66.5065 70.6207 66.183 70.5501 66.0564 70.4796C65.8314 70.3949 65.8033 70.4654 65.8033 70.9737C65.8033 71.6513 66.0002 72.1031 66.2956 72.1031C66.5487 72.1031 66.5628 72.2583 66.3378 72.5689C66.183 72.7666 66.0705 72.7807 65.6767 72.6677C65.4094 72.5972 65.1422 72.5689 65.0859 72.6113C64.8327 72.7666 64.9734 73.4724 65.3813 74.0795C65.8033 74.7148 65.9158 75.0677 65.6767 75.0677C65.6064 75.0677 65.2969 74.983 64.9875 74.87C64.1295 74.5595 63.9607 74.9406 64.678 75.59C65.3391 76.183 65.2406 76.4512 64.3686 76.5077L63.6231 76.55L63.5809 77.2276C63.5528 77.7217 63.6653 78.2864 63.9748 79.1758C64.2139 79.8676 64.3686 80.5029 64.3264 80.5734C64.2139 80.757 63.1449 81.0252 62.8354 80.9546C62.3291 80.8134 62.5401 81.3922 63.1308 81.7875C63.595 82.0981 63.6934 82.2393 63.6934 82.6346C63.6934 83.1851 63.4543 83.3546 62.4979 83.4957C61.7524 83.5945 61.7524 83.7498 62.4416 84.2016C63.1308 84.6675 63.2715 84.7945 63.2715 85.0204C63.2715 85.1757 63.0886 85.2322 62.5682 85.2322C61.9775 85.2322 61.8649 85.2745 61.8649 85.5004C61.8649 85.6416 62.0618 85.9945 62.2869 86.291C62.7229 86.8415 62.7792 87.0251 62.5963 87.3074C62.526 87.4345 62.3432 87.4345 61.8931 87.3074C61.246 87.138 60.8522 87.265 60.7678 87.6744C60.7397 87.8015 60.9788 88.1827 61.2882 88.5215C61.6117 88.8603 61.8649 89.2697 61.8649 89.425C61.8649 89.7779 61.3304 90.032 60.599 90.032C60.2896 90.032 60.0364 90.0885 60.0364 90.1732C60.0364 90.4979 60.374 90.992 60.7397 91.2179L61.1476 91.4579L60.6272 91.9379C60.1067 92.4037 60.1067 92.4179 60.1067 93.5896V94.7613L59.3753 94.8037C58.4892 94.8602 58.4189 95.0578 59.0518 95.7637C59.6144 96.4131 59.5019 96.6107 58.6299 96.5542C57.9969 96.4978 57.9266 96.526 57.9266 96.7942C57.9266 96.9636 58.0813 97.3448 58.2782 97.6554C58.4751 97.966 58.6299 98.3471 58.6299 98.5024C58.6299 98.7424 58.5314 98.7848 58.0672 98.7848C57.5749 98.7848 57.5046 98.8271 57.5046 99.1236C57.5046 99.3071 57.7015 99.6883 57.9266 99.9847C58.4611 100.662 58.4892 101.269 57.9828 101.495C57.7156 101.622 57.5187 101.622 57.2233 101.509C56.4778 101.227 56.4356 101.834 57.153 102.512C57.4202 102.78 57.6453 103.105 57.6453 103.26C57.6453 103.571 57.1248 103.867 56.5763 103.867C56.2387 103.867 56.2247 103.909 56.309 104.333C56.3653 104.573 56.4216 104.883 56.4638 105.011C56.5763 105.406 56.1684 105.759 55.6198 105.745C55.1838 105.73 55.1135 105.773 55.1135 106.055C55.1135 106.267 55.2823 106.521 55.5917 106.761C56.1121 107.156 56.309 107.721 56.0137 107.975C55.859 108.102 55.648 108.088 55.1697 107.961C54.6212 107.806 54.5087 107.806 54.3117 108.003C54.1008 108.215 54.143 108.286 54.8181 108.921C55.4229 109.5 55.5495 109.697 55.5073 110.022C55.4651 110.432 55.4651 110.432 54.368 110.474L53.2568 110.516L53.8335 110.926C54.2977 111.264 54.4102 111.434 54.4102 111.787C54.4102 112.154 54.368 112.21 54.1711 112.126C53.5522 111.857 53.285 111.872 53.285 112.168C53.285 112.507 53.4819 112.676 54.1711 112.888C54.6071 113.043 54.6915 113.128 54.6915 113.453C54.6915 114.144 54.2836 114.356 53.2146 114.243C52.5395 114.173 52.3004 114.201 52.3004 114.314C52.3004 114.511 53.1865 115.415 53.6929 115.74C54.2414 116.093 53.946 116.29 52.8489 116.29C52.1597 116.29 51.8784 116.347 51.8784 116.46C51.8784 116.756 52.0472 116.926 52.6801 117.335C53.1302 117.603 53.285 117.801 53.285 118.055C53.285 118.38 53.2428 118.408 52.5817 118.408C51.9628 118.408 51.8784 118.436 51.8784 118.704C51.8784 118.874 52.0613 119.227 52.3004 119.495C52.7364 119.989 52.7927 120.187 52.5958 120.511C52.5114 120.638 52.3426 120.681 52.0753 120.61C51.2455 120.398 50.9642 120.441 50.922 120.751C50.8938 120.977 51.0204 121.147 51.3721 121.372C51.8503 121.669 52.3004 122.163 52.3004 122.389C52.3004 122.46 51.8925 122.502 51.3861 122.502C50.6828 122.502 50.4719 122.544 50.4719 122.7C50.4719 122.968 50.8094 123.292 51.3439 123.575C51.7096 123.758 51.7518 123.843 51.6674 124.238C51.5127 124.944 51.3299 125.085 50.6828 125.001C50.3734 124.958 50.0077 124.888 49.8811 124.831C49.6701 124.747 49.6279 124.803 49.6279 125.099C49.6279 125.495 49.8248 125.721 50.6125 126.229C50.9923 126.469 51.1048 126.624 51.1048 126.949C51.1048 127.415 50.9642 127.443 49.867 127.231L49.3326 127.118L49.3747 127.598C49.4029 127.979 49.5295 128.149 49.9374 128.417C50.5984 128.841 50.6828 129.335 50.0921 129.179C49.4029 128.996 48.8684 129.052 48.8121 129.292C48.7981 129.419 48.995 129.786 49.2763 130.111C49.5435 130.45 49.7686 130.831 49.7686 130.986C49.7686 131.226 49.6561 131.255 48.8543 131.255C48.0385 131.255 47.9401 131.283 47.9401 131.537C47.9401 131.72 48.1229 131.904 48.4746 132.059C48.8684 132.257 49.009 132.412 49.0372 132.709C49.0794 133.09 49.0653 133.09 48.3058 133.09C47.8697 133.09 47.5181 133.146 47.5181 133.217C47.5181 133.57 47.7431 133.838 48.2776 134.106C48.9106 134.431 49.0653 134.586 49.0653 134.953C49.0653 135.179 48.9247 135.207 47.9401 135.207C46.9273 135.207 46.8148 135.236 46.8148 135.476C46.8148 135.631 47.068 136.054 47.3774 136.407C47.9541 137.071 48.362 137.749 48.362 138.031C48.362 138.116 47.926 138.172 47.2368 138.172C46.2241 138.172 46.1115 138.2 46.1115 138.44C46.1115 138.709 46.7164 139.301 46.9977 139.301C47.2509 139.301 47.6588 139.753 47.6588 140.021C47.6588 140.163 47.504 140.389 47.3212 140.501C47.0399 140.685 46.8711 140.699 46.4351 140.586C45.6052 140.346 45.4083 140.389 45.4083 140.784C45.4083 140.996 45.5489 141.221 45.774 141.377C46.421 141.814 46.9555 142.379 46.9555 142.605C46.9555 142.788 46.7867 142.831 46.0694 142.831C44.8035 142.831 44.6909 143.014 45.4927 143.833C45.9287 144.285 46.1256 144.581 46.0694 144.723C45.9287 145.09 45.5349 145.16 45.0988 144.906C44.8597 144.779 44.5221 144.666 44.3252 144.666C43.7767 144.666 43.9455 145.231 44.5925 145.584C44.9722 145.781 45.127 145.965 45.127 146.177C45.127 146.473 45.0566 146.501 44.4237 146.501C44.0439 146.501 43.7204 146.53 43.7204 146.572C43.7204 146.614 43.9455 146.967 44.2127 147.362C44.4799 147.758 44.705 148.153 44.705 148.252C44.705 148.337 44.7472 148.548 44.7894 148.718C44.8738 149.014 44.8316 149.042 44.3956 149.042C44.1283 149.042 43.5094 148.845 43.0171 148.605C42.1029 148.139 40.3728 146.628 39.9649 145.922C39.7821 145.626 39.5148 145.457 38.9522 145.287C38.1083 145.047 37.4331 144.61 35.9141 143.381C34.9154 142.577 33.9167 141.984 33.537 141.984C33.1009 141.984 33.1713 141.631 34.0011 139.965C35.0139 137.904 35.9844 136.294 37.194 134.685C37.8832 133.767 38.0942 133.386 38.0942 133.019C38.0942 132.017 38.6287 130.309 39.2476 129.25C42.7921 123.377 45.4927 117.151 51.0345 102.102C51.6674 100.394 52.9333 97.1472 53.8476 94.9025C55.437 90.9638 56.4638 88.3097 58.2079 83.4675C60.0223 78.4841 63.8622 68.3761 66.9707 60.4563C67.885 58.0987 68.4054 56.5458 68.6726 55.3599C69.0805 53.4823 70.2902 49.233 71.8374 44.2355C72.7376 41.3273 72.836 40.8755 72.836 39.8591L72.822 38.7156L72.4141 39.1674C71.9921 39.6332 71.767 40.2826 71.3591 42.2449C71.1763 43.0637 70.8387 43.9108 70.0933 45.3507C68.8696 47.7224 68.8133 47.8777 68.546 49.9247C68.3351 51.5765 68.1522 52.0282 67.5615 52.4235C67.041 52.7623 66.4643 54.4564 65.1703 59.468C64.889 60.5551 64.467 62.0798 64.2279 62.8562C63.4121 65.5244 60.3318 73.5007 59.2487 75.7312C57.8141 78.6958 57.7437 78.8652 57.2233 80.7287C56.3934 83.6651 55.7464 85.5286 53.8054 90.5967C53.2287 92.1073 52.427 94.2955 52.0191 95.4672C49.9655 101.467 49.4029 102.935 47.3493 107.89C40.9636 123.278 36.547 132.511 32.6649 138.624C31.9054 139.81 31.9054 139.81 31.0614 139.993C29.894 140.233 29.7815 140.163 27.095 137.438C24.9429 135.264 24.521 134.77 24.085 133.852C23.6067 132.892 23.5645 132.695 23.5505 131.579C23.5364 130.365 23.5505 130.337 23.9162 130.153C24.1271 130.055 24.5772 129.645 24.9008 129.236C25.2383 128.841 25.8009 128.219 26.1526 127.866C26.6027 127.415 26.8418 127.034 26.9824 126.525C27.1372 125.989 27.3903 125.608 28.0655 124.902C28.7547 124.182 29.1485 123.575 29.9081 122.078C30.4285 121.034 31.7647 118.733 32.8618 116.968C34.9998 113.551 36.125 111.49 36.8283 109.81C37.0674 109.232 37.4894 108.497 37.7988 108.159C38.5584 107.34 39.0929 106.225 39.6414 104.291C40.1759 102.413 40.5979 101.509 41.3293 100.62C42.2154 99.533 42.3279 99.293 42.4545 98.0083C42.5952 96.6107 42.8905 95.9048 44.4237 93.2084C44.9582 92.2767 45.999 90.2156 46.7445 88.6203C50.7813 80.0511 54.143 72.6536 57.2374 65.5385C58.1094 63.5197 59.3894 60.7527 60.0786 59.3975C62.4275 54.7811 63.6231 52 66.8301 43.7131C67.7162 41.4261 68.7711 38.8991 69.1649 38.0944C69.9104 36.5698 70.0511 35.8215 69.6994 35.3416C69.5166 35.1016 69.4744 35.1298 69.0524 35.6945C68.4195 36.5839 67.3645 38.6732 66.3659 41.1155C65.4376 43.3461 64.5374 45.2378 64.1013 45.859C63.9607 46.0566 63.806 46.5084 63.7497 46.8472C63.4262 49.1201 62.8073 50.7294 60.6412 55.0211C59.7973 56.6869 58.9534 58.5504 58.7705 59.1433C58.5736 59.7504 58.3485 60.2445 58.2642 60.2445C58.1798 60.2445 57.9969 60.3998 57.8703 60.5974C57.7437 60.7951 57.5046 60.9504 57.3499 60.9504C57.1248 60.9504 57.0826 61.0068 57.153 61.1904C57.2092 61.3315 57.2796 61.6421 57.3218 61.8821C57.3921 62.2915 57.3499 62.3621 56.8857 62.5739C56.2247 62.8986 55.9011 63.4491 55.4792 65.0303C55.0432 66.6538 54.7196 67.289 54.157 67.6561C53.7351 67.9243 53.721 67.9808 53.7069 68.8984V69.8725L53.1865 69.816C52.7364 69.7737 52.652 69.816 52.6098 70.0702C52.5817 70.2396 52.6661 70.6207 52.7786 70.9031C52.9052 71.1995 53.0037 71.5525 53.0037 71.6936C53.0037 72.0325 52.4973 72.2442 51.7237 72.2442C51.0345 72.2442 50.9782 72.5689 51.5971 73.1618C51.8221 73.3877 52.0191 73.6701 52.0191 73.783C52.0191 73.9101 51.6956 74.1924 51.3017 74.4324C50.0499 75.1806 49.4732 76.2677 49.4591 77.9194C49.4591 78.8088 49.4451 78.8652 49.0653 79.0205C48.7559 79.1476 48.6011 79.1476 48.362 79.0205C48.1089 78.8794 48.0245 78.8935 47.926 79.0347C47.8557 79.1476 47.8275 79.2888 47.8557 79.3735C47.8838 79.4441 47.9823 79.7546 48.0948 80.037C48.2214 80.4181 48.2354 80.6864 48.137 80.9546C48.0245 81.3075 47.926 81.3499 47.2649 81.3922C46.3929 81.4487 46.2944 81.7028 46.9555 82.3381C47.4618 82.8181 47.49 83.1146 47.0539 83.1146C46.5054 83.1146 46.1537 83.6651 45.7177 85.2322C45.127 87.4062 44.7894 87.9144 44.0158 87.9144C43.636 87.9144 43.5094 88.4085 43.7767 88.8321C43.9033 89.0156 44.0017 89.3262 44.0017 89.5238C44.0017 89.8062 43.9033 89.905 43.4672 90.0179C43.1859 90.1026 42.8624 90.1732 42.7499 90.1732C42.5952 90.1732 42.5811 90.3144 42.6655 90.8367C42.8484 92.079 42.8202 92.4602 42.553 92.6296C42.342 92.7567 42.2435 92.7143 41.9763 92.3896C41.6246 91.952 41.3152 91.9096 41.0339 92.2343C40.8792 92.4179 40.8932 92.5449 41.1605 93.039C41.695 94.0414 41.5825 94.2672 40.7385 93.9143C40.5275 93.8296 40.4853 93.8861 40.4853 94.3096C40.4853 94.719 40.5838 94.8884 40.9917 95.2272C41.8356 95.9331 41.484 96.0884 39.7961 95.7354C39.3601 95.6507 39.332 95.6648 39.4304 95.9754C39.6695 96.7378 39.7821 96.9213 40.1337 97.2036C40.3447 97.373 40.4713 97.5707 40.415 97.6554C40.3728 97.726 39.8524 97.7966 39.2757 97.7966C38.263 97.7966 38.2208 97.8107 38.263 98.1071C38.2911 98.333 38.474 98.4883 38.8678 98.6436C39.6977 98.9542 39.7821 99.0389 39.7821 99.533C39.7821 100.324 39.6133 100.437 38.8397 100.211C37.8832 99.9424 37.616 99.9424 37.5597 100.239C37.5316 100.394 37.7707 100.747 38.2208 101.185C38.9803 101.919 39.0788 102.173 38.7131 102.469C38.5443 102.611 38.3615 102.611 37.7707 102.469C36.5048 102.173 36.4767 102.187 36.5048 102.738C36.5189 103.062 36.6314 103.302 36.8564 103.472C37.7707 104.149 37.9536 104.333 37.9536 104.516C37.9536 104.785 37.2503 104.771 36.3501 104.502C35.9141 104.361 35.6046 104.333 35.5202 104.418C35.253 104.686 35.5624 105.208 36.1954 105.589C36.6173 105.843 36.8283 106.069 36.8283 106.267C36.8283 106.662 36.3923 106.634 35.9844 106.196C35.5905 105.773 34.9998 105.716 34.9998 106.112C34.9998 106.253 35.0983 106.606 35.2108 106.874C35.4921 107.552 35.4921 108.441 35.2248 108.342C34.7747 108.159 34.0011 108.074 33.6636 108.159C33.1291 108.3 33.1994 108.766 33.8042 109.006C34.2121 109.189 34.2965 109.288 34.2965 109.641C34.2965 110.149 34.1137 110.192 33.5229 109.796C32.9462 109.415 32.89 109.429 32.89 110.008C32.89 110.672 33.1994 111.25 33.6636 111.462C33.973 111.603 34.0152 111.674 33.8746 111.843C33.6214 112.14 33.3401 112.112 32.8056 111.702C32.5524 111.504 32.2148 111.349 32.0601 111.349C31.821 111.349 31.7647 111.434 31.7647 111.815C31.7647 112.069 31.8632 112.62 31.9898 113.029C32.1023 113.439 32.1726 113.82 32.1304 113.862C32.0882 113.904 31.8913 113.862 31.6944 113.777C31.2724 113.58 31.188 113.58 30.9489 113.721C30.7239 113.876 31.0896 114.85 31.5115 115.175C31.821 115.415 31.7507 115.726 31.399 115.726C31.2865 115.726 31.0052 115.627 30.7801 115.514C30.4004 115.316 30.3582 115.316 30.2316 115.556C30.1331 115.74 30.1753 115.98 30.4004 116.417C30.9208 117.434 30.2597 117.942 29.4439 117.137C29.1907 116.883 28.8954 116.714 28.7969 116.742C28.6984 116.77 28.614 117.194 28.5719 117.857C28.5156 118.733 28.5578 118.973 28.7547 119.17C28.9376 119.354 28.9516 119.453 28.825 119.58C28.6984 119.707 28.5437 119.678 28.178 119.481C27.9108 119.325 27.6435 119.241 27.6013 119.283C27.5591 119.34 27.5873 119.608 27.6717 119.89C27.8404 120.54 27.7561 120.765 27.2497 121.034C26.7855 121.274 26.7855 121.26 27.0106 121.895C27.2356 122.53 27.0106 122.784 26.5042 122.445C26.3073 122.318 26.0541 122.22 25.9275 122.22C25.59 122.22 25.6603 123.095 26.0541 123.674C26.2932 124.027 26.3495 124.21 26.237 124.323C25.9557 124.605 25.6322 124.492 24.957 123.899C24.1131 123.151 23.9724 123.419 24.5772 124.676C25.3649 126.314 24.9851 126.808 23.9302 125.523C23.663 125.184 23.3817 124.902 23.3113 124.902C23.1144 124.902 23.1707 125.636 23.3957 126.031C23.5786 126.37 23.6771 127.019 23.5364 127.019C23.5083 127.019 23.3254 126.949 23.1285 126.864C22.7487 126.681 22.594 126.384 22.2846 125.071C22.1017 124.365 21.9048 123.998 21.3422 123.335C20.9483 122.883 19.8794 121.471 18.9651 120.215L17.3194 117.914L17.6429 116.954C18.1774 115.373 18.7541 114.511 19.8653 113.622C21.2859 112.493 21.8626 111.872 22.0595 111.25C22.3549 110.29 22.8191 109.726 23.4379 109.542C24.1412 109.33 24.9148 108.469 25.9838 106.733C27.742 103.867 28.9235 102.229 31.1458 99.5612C34.1137 96.0037 34.7325 95.1566 36.6877 92.0508C39.0788 88.2533 39.8946 87.0533 40.5557 86.3615C40.8932 86.0086 41.6809 84.8369 42.3279 83.7498C43.5094 81.7311 44.9863 79.4441 46.0553 77.99C46.3788 77.5523 47.0539 76.4088 47.5322 75.4489C48.5308 73.4724 50.9079 69.1666 53.7069 64.2679C57.2233 58.0987 59.2487 54.3011 60.9085 50.7153C61.9775 48.4424 63.6934 44.2496 63.6934 43.9672C63.6794 43.8684 63.3559 44.1649 62.948 44.6025C62.2025 45.4213 62.104 45.5907 60.585 48.7248C59.8817 50.2071 59.5441 50.7294 58.8268 51.4635C58.0954 52.2259 57.8844 52.5647 57.5749 53.4541C57.0264 55.0211 54.7478 59.6092 53.4678 61.7268C52.8489 62.7291 51.3721 65.1432 50.1905 67.0914C48.995 69.0255 47.7291 71.3125 47.3634 72.1454C46.646 73.783 46.1397 74.5736 45.7037 74.7148C45.5489 74.7571 45.4083 74.983 45.352 75.223C45.2395 75.8441 44.6347 76.9876 43.9877 77.8629C43.3125 78.7523 42.764 79.8111 42.6374 80.4605C42.5811 80.7428 42.2576 81.2511 41.7794 81.7734C41.3433 82.2393 40.5275 83.3546 39.9509 84.2439C37.7988 87.5756 37.3347 88.225 36.5048 89.0579C35.8297 89.7497 35.5202 90.2156 34.9998 91.3449C33.6214 94.3943 31.8491 96.9636 29.3595 99.5471C27.9811 101.001 27.1512 102.032 25.59 104.291C22.8613 108.257 21.2859 110.276 19.5277 112.041C17.3898 114.201 15.8285 115.147 14.0562 115.387L13.2967 115.486L13.367 114.85C13.4374 114.243 13.4233 114.201 12.7903 113.679C12.4246 113.368 11.8902 112.832 11.5948 112.479C10.99 111.759 9.99131 109.754 9.54121 108.356L9.23177 107.425L9.89285 106.38C11.2431 104.305 13.7187 101.665 17.2772 98.573C19.6684 96.4837 22.2002 93.9849 22.2002 93.7025C22.2002 93.5755 22.2986 93.3496 22.4112 93.1943C22.5237 93.0531 22.6221 92.7284 22.6221 92.5026C22.6221 92.1638 22.7909 91.8955 23.3395 91.3732C24.5491 90.1873 27.3622 86.9686 29.6408 84.1592C33.537 79.3735 35.7734 76.7194 37.3628 75.0253C38.3896 73.9101 39.2898 72.7666 40.0071 71.6372C41.8778 68.7008 44.6206 64.6068 48.1511 59.468C54.1711 50.7153 57.0686 46.2401 59.6426 41.7367C61.3304 38.8003 63.7497 34.1416 63.6512 34.0286C63.4965 33.8734 62.8495 34.1416 62.3853 34.551C61.8649 35.0027 61.6117 35.511 61.1476 37.0498C60.7397 38.4333 60.5006 38.7721 59.2347 39.8026C57.378 41.3132 57.2092 41.5108 57.2374 42.372C57.2655 43.0496 57.1952 43.2049 56.5622 44.1649C56.1684 44.7437 55.5214 45.859 55.1135 46.6495C54.2555 48.3718 53.3975 49.3883 52.5114 49.7553L51.8784 50.0094V50.9553V51.9012L51.2736 52.2682C50.922 52.4659 50.4437 52.6212 50.1484 52.6212C49.5717 52.6212 49.5154 52.7623 49.8389 53.327C49.9514 53.5247 50.0358 53.8494 50.0499 54.047C50.0499 54.3717 49.9796 54.4423 49.5717 54.5129C48.995 54.6258 48.7981 54.8376 48.1792 56.094C47.6728 57.0963 47.1243 57.7034 46.7164 57.7034C46.5757 57.7034 46.5335 57.7881 46.6038 57.9434C46.6601 58.0846 46.7304 58.4092 46.7726 58.6492C46.843 59.0869 46.8148 59.1292 46.21 59.3833C45.4505 59.708 45.2254 60.0751 45.2957 60.8233L45.352 61.3739H44.6206H43.8892L43.9595 61.9668C44.058 62.9127 43.6501 63.435 42.5952 63.7315L41.7512 63.9574V64.8467C41.7512 65.8208 41.5121 66.1455 41.0198 65.8773C40.7948 65.7644 40.7807 65.7926 40.8651 66.1738C40.9354 66.5691 40.8651 66.682 40.0774 67.4161C39.2194 68.2208 39.2194 68.2208 39.2194 68.9972V69.7737L38.474 70.1266C37.7988 70.4513 37.7285 70.5219 37.63 71.1148C37.4613 71.9478 37.3628 72.0607 36.6173 72.1736C35.9141 72.2725 35.7031 72.5266 35.7031 73.2607C35.7031 74.0089 35.5202 74.1783 34.9717 73.9665C34.5638 73.8112 34.4794 73.8254 34.3246 74.0371C34.2262 74.1783 34.1699 74.3901 34.2121 74.503C34.2403 74.6159 34.3387 74.9124 34.409 75.1524L34.5497 75.6041L33.2979 76.1265C32.6087 76.4088 32.0179 76.7053 31.9616 76.7759C31.9194 76.8465 32.032 77.1853 32.2008 77.5382C32.5946 78.3147 32.468 78.5123 31.7366 78.2864C30.8223 78.0041 30.4004 78.4417 30.9067 79.1476C31.0755 79.3735 31.2021 79.684 31.2021 79.8252C31.2021 80.517 30.33 80.6581 29.8518 80.037C29.683 79.8252 29.5002 79.6982 29.458 79.7405C29.4017 79.7829 29.3033 80.2205 29.2189 80.7005C29.0501 81.6605 28.8813 81.7452 28.1077 81.3499C27.7561 81.1664 27.6857 81.1664 27.6857 81.3217C27.6857 81.6605 28.1077 82.7475 28.2765 82.8463C28.4031 82.931 28.4031 83.0016 28.2624 83.171C28.1077 83.3546 28.0374 83.3546 27.6576 83.1146C27.1512 82.804 26.8418 82.8887 26.8418 83.3263C26.8418 83.5098 26.6167 83.9334 26.3354 84.2722C25.7728 84.9216 25.4352 85.6133 25.4352 86.0651C25.4352 86.4039 24.9851 86.5733 24.6054 86.3757C24.4507 86.291 24.1693 86.2204 23.9724 86.2204C23.6911 86.2204 23.6067 86.291 23.6067 86.5309C23.6208 86.7145 23.7052 87.0109 23.8177 87.2086C24.2537 87.9709 23.874 88.5638 23.1988 88.2109C23.0441 88.1262 22.7487 88.0556 22.5518 88.0556C22.2424 88.0556 22.2002 88.1121 22.2564 88.338C22.2986 88.4933 22.383 88.7474 22.4252 88.9168C22.6643 89.7638 22.0033 90.2297 21.5532 89.5379C21.2719 89.1144 21.1312 89.1003 20.9343 89.4815C20.8077 89.6932 20.8218 89.9191 20.9905 90.4132C21.1171 90.7803 21.2156 91.2179 21.2156 91.4014C21.2156 91.712 21.1734 91.7261 20.2451 91.7261C19.6965 91.7261 19.2183 91.7967 19.1761 91.8673C19.1198 91.952 19.2464 92.2061 19.4574 92.4602C20.1466 93.279 19.5981 93.9425 18.8244 93.2084C18.5994 92.9967 18.3181 92.8555 18.1634 92.8837C17.9524 92.9261 17.9102 93.0673 17.9243 93.7449C17.9383 94.6202 17.7977 94.7613 17.3476 94.2672C17.0522 93.9284 16.6021 93.9002 16.4896 94.1966C16.4333 94.3096 16.5036 94.6625 16.6302 94.9731C16.7568 95.2837 16.8553 95.5801 16.8553 95.6225C16.8553 95.7072 16.4896 95.6507 15.6878 95.4531C15.3221 95.3684 15.3081 95.3825 15.3081 95.9331C15.3081 96.2437 15.4065 96.5966 15.5191 96.7095C15.7019 96.8931 15.7019 96.9495 15.505 97.1048C15.3221 97.246 15.2096 97.246 14.8439 97.0907C14.5907 96.9919 14.211 96.9072 13.9718 96.8931C13.6061 96.8789 13.5499 96.9213 13.6061 97.2319C13.6202 97.4295 13.7609 97.7401 13.9015 97.9519C14.0422 98.1495 14.211 98.4883 14.2672 98.7001L14.3516 99.0812L13.8171 98.8412C13.5077 98.7142 13.0998 98.573 12.8747 98.5307C12.509 98.4742 12.495 98.4883 12.495 99.1236C12.495 99.66 12.4528 99.773 12.2418 99.773C12.1011 99.773 11.8902 99.6177 11.7917 99.4201C11.5807 99.0248 11.2713 99.0107 11.0322 99.3777C10.9196 99.5612 10.9478 99.7871 11.1306 100.295C11.5666 101.509 11.2994 102.074 10.6946 101.227C10.5117 100.973 10.357 100.888 10.1742 100.945C9.97724 101.029 9.94911 101.142 10.0194 101.58C10.2164 102.653 10.1882 102.935 9.92098 102.992C9.31616 103.119 8.78167 102.229 8.57069 100.747C8.4441 99.8577 8.20499 99.2506 6.95316 96.6672C6.13736 95.0013 5.23716 93.2084 4.94179 92.6861L4.4073 91.7402L5.11057 91.0203C6.0389 90.0462 7.09381 89.3262 9.52715 87.9286C15.4628 84.5263 25.2243 76.7053 34.6482 67.8114C40.2884 62.475 43.4954 59.2281 43.9033 58.3951C44.4659 57.2799 45.4927 55.9528 46.7445 54.7387C47.3493 54.1599 48.1511 53.2141 48.5449 52.6212C48.9387 52.0423 50.0499 50.5459 51.0345 49.3036C52.005 48.0613 53.1021 46.6354 53.4537 46.1272C54.0586 45.2519 55.3948 42.979 55.3948 42.8096C55.3948 42.7673 55.0572 42.9084 54.6634 43.1061C53.6085 43.6425 52.0331 45.2943 50.3734 47.6095C49.5998 48.6965 47.5884 51.2094 45.9006 53.1858C44.2127 55.1623 42.0185 57.8163 41.0058 59.0728C39.5992 60.8515 39.0366 61.4304 38.5865 61.6562C38.2349 61.8256 37.5597 62.4186 36.983 63.0538C36.4345 63.6609 35.7453 64.2962 35.4358 64.4373C35.0279 64.6491 34.6763 65.0162 34.1559 65.7926C33.3541 67.0067 32.257 68.0655 30.9067 68.9408C30.4004 69.2655 29.894 69.6466 29.7815 69.7878C29.669 69.9149 28.0936 71.2701 26.2792 72.7948C24.4647 74.3054 22.369 76.1688 21.6235 76.9171C20.7092 77.8488 19.8231 78.5688 18.8807 79.1617C17.1366 80.2629 15.941 81.124 11.7214 84.3145C6.99535 87.9003 4.4073 89.6085 3.71809 89.6085C3.43678 89.6085 3.28206 89.4956 3.09921 89.1568C2.97262 88.9168 2.71944 88.5497 2.53659 88.3662L2.21308 88.0274L2.35373 84.3992C2.50845 80.8699 2.7335 78.7382 3.11327 77.4676C3.29612 76.8324 3.31019 76.8324 5.11057 75.9147C6.12329 75.4065 7.88148 74.5595 9.02079 74.023C11.4823 72.8654 13.0295 71.9336 14.0703 70.9878C14.5345 70.5643 15.5191 69.9572 16.6443 69.3784C19.9638 67.6843 23.4098 65.4679 27.5451 62.3762C29.9081 60.6115 38.8397 53.4682 41.1183 51.5059C43.1437 49.7836 46.2381 46.706 47.6166 45.0684C48.7277 43.7555 51.1048 40.3532 50.9923 40.2403C50.8938 40.1414 49.7686 40.6073 49.3326 40.932C49.0934 41.1155 48.5589 41.7791 48.137 42.4143C47.3353 43.6002 45.4786 45.3931 39.0085 51.1388C35.1264 54.5835 34.8451 54.8235 34.0152 55.1623C32.7915 55.6846 31.4834 56.6022 30.527 57.6187C29.8237 58.3387 29.5424 58.5504 29.2329 58.5504C29.0079 58.5504 28.7828 58.4798 28.7266 58.3951C28.6703 58.2963 28.5719 58.3669 28.4734 58.5645C28.389 58.7339 27.9811 59.0869 27.5591 59.3269C26.6589 59.8633 26.4198 60.1457 26.4198 60.7104C26.4198 61.1198 26.4058 61.1198 25.8853 61.0633C25.4071 60.9927 25.3368 61.021 25.1821 61.3739C25.0695 61.6139 24.7038 61.9245 24.1975 62.1927C23.3113 62.6727 22.9878 62.9691 22.8472 63.4491C22.7065 63.8868 22.2002 63.8727 21.6657 63.4209C21.1593 62.9974 20.9343 62.9691 21.0327 63.3644C21.1312 63.7174 20.8358 64.3103 20.5123 64.4091C20.0622 64.5503 19.5277 65.1573 19.5277 65.5385C19.5277 65.9479 19.4574 65.962 18.7682 65.6797C18.3884 65.5103 18.1774 65.4961 17.9805 65.6091C17.657 65.7926 17.6429 65.8491 17.9102 66.3149C18.1774 66.7808 18.1774 67.289 17.8961 67.402C17.7695 67.4443 17.4601 67.3737 17.1929 67.2467C16.9256 67.1196 16.4755 67.0208 16.2083 67.0208H15.7019L15.8004 67.7267C15.8707 68.2067 15.8426 68.5031 15.73 68.6443C15.4487 68.9831 15.0549 68.8843 14.8158 68.4325C14.4079 67.642 13.8031 68.009 13.6624 69.1102C13.5921 69.7455 13.5358 69.8584 13.2264 69.9431C12.9451 70.0137 12.7903 69.9431 12.5512 69.6608C12.3684 69.449 12.1293 69.2796 12.0167 69.2796C11.8058 69.2796 11.5526 69.929 11.4823 70.6631L11.4401 71.0019L11.0603 70.7054C10.5961 70.3243 10.4133 70.3243 10.357 70.7196C10.3148 71.016 10.1179 71.1713 9.18957 71.5666C8.852 71.7219 8.75354 71.8631 8.69728 72.3148C8.62695 72.8513 8.59882 72.8795 8.14873 72.8513C7.82522 72.8372 7.52984 72.6819 7.16414 72.3289C6.88283 72.0466 6.60152 71.8207 6.54526 71.8207C6.489 71.8207 6.4468 72.2019 6.4468 72.6819V73.543L6.0389 73.4442C5.47628 73.3171 5.09651 73.5571 4.75894 74.2206C4.35104 75.0253 4.01346 75.1665 3.64776 74.7006C3.2258 74.1642 3.26799 73.2042 3.77435 71.6513C4.01346 70.9313 4.23851 69.929 4.29478 69.4208L4.37917 68.5031L6.15142 67.882C9.72406 66.6538 12.8607 65.0162 17.0241 62.2068C19.7387 60.3857 20.7374 59.6092 22.4252 57.9998C24.2819 56.2211 25.2383 55.614 29.0219 53.8494C31.6663 52.5929 32.9181 51.9294 33.7339 51.3224C34.4794 50.7577 35.478 49.6989 35.9141 49.0212C36.3641 48.3013 36.8846 47.1295 36.7861 47.0307C36.758 47.0025 36.3923 47.2283 35.9703 47.553C34.6341 48.5554 32.046 50.1506 27.5873 52.7059C21.314 56.2917 18.3603 58.3245 16.1239 60.5692C15.4628 61.2327 15.0408 61.5292 14.4641 61.7268C14.0281 61.8821 13.4092 62.2492 13.0576 62.5739C12.706 62.8844 11.9183 63.5056 11.2994 63.9432C10.6805 64.3809 9.99131 64.9314 9.76626 65.1714C9.51308 65.4397 9.20364 65.6091 8.99266 65.6091C8.31751 65.6091 6.65778 66.0326 5.9967 66.3573L5.32156 66.6961L4.98398 66.1879C4.18225 64.9879 4.16819 63.7738 4.91366 62.3621C5.15277 61.8962 6.01077 60.6963 6.8125 59.708C7.71269 58.5787 8.45817 57.4775 8.79574 56.7716C9.24584 55.8399 9.45682 55.5576 10.1601 55.0352C10.6243 54.6823 11.2853 53.9905 11.637 53.4964C14.6329 49.2753 16.0254 47.6519 17.6289 46.5507C19.4293 45.3084 21.6798 44.2778 25.0977 43.1484L27.3341 42.4143L31.9054 42.3155C35.8015 42.2167 36.6173 42.1602 37.4613 41.9343C41.0761 40.9179 45.127 38.8144 48.1089 36.4145C49.3326 35.4121 49.2341 35.638 50.4015 31.0922C51.794 25.6712 52.4692 23.5959 53.4959 21.563C53.8195 20.9278 53.8476 20.716 53.8476 18.9655C53.8476 17.5961 53.721 16.1985 53.3975 13.9115C53.088 11.6668 52.9474 10.1986 52.9474 8.78688C52.9333 6.95163 52.9615 6.73987 53.3412 5.7093C53.6366 4.90462 53.932 4.39639 54.4383 3.83171L55.1416 3.06937L55.6198 3.4223C56.3231 3.95876 57.4906 4.46698 58.5877 4.69286C59.2065 4.83403 60.81 4.93286 63.1308 4.9752C66.9285 5.05991 68.0397 5.17285 69.3618 5.6246C70.1214 5.87872 70.248 5.89284 70.8528 5.69519C72.3015 5.24344 73.8487 5.00345 77.6183 4.69286C80.6283 4.43875 80.7408 4.41052 81.4863 3.987C81.7958 3.80347 82.5553 3.56348 83.1742 3.43642C86.4655 2.78702 89.2786 2.6882 95.9035 2.99878C101.572 3.2529 102.444 3.23878 106.031 2.71645C108.83 2.30704 110.982 2.32115 113.19 2.78702ZM119.126 33.8169C119.688 34.1839 120.799 35.3133 120.799 35.5251C120.799 35.5816 120.659 35.6804 120.49 35.751C119.688 36.1039 120.11 36.8239 121.939 38.165C123.781 39.5203 124.372 40.2403 124.667 41.4967C124.963 42.7108 125.047 42.8943 125.525 43.3884L125.891 43.7414L126.271 43.3884C126.693 42.979 126.918 42.9226 127.03 43.219C127.073 43.332 127.537 43.6425 128.071 43.9249C129.351 44.6025 130.842 45.746 133.388 48.0048C136.117 50.4471 136.806 50.9835 141.687 54.5976C143.937 56.2493 147.186 58.7481 148.902 60.1316C153.403 63.7456 154.979 64.762 162.574 69.0255C167.131 71.5807 169.143 72.7807 170.69 73.8254C171.618 74.4465 171.773 74.503 172.546 74.503C173.334 74.503 173.461 74.5453 174.206 75.1383C174.656 75.4771 175.43 76.07 175.936 76.4371C177.723 77.7641 177.99 79.0488 177.272 82.9169C177.061 84.0745 176.865 85.1051 176.836 85.218C176.794 85.3592 176.611 85.3874 176.063 85.3169C174.938 85.1616 174.248 84.851 170.718 82.8322C165.05 79.5993 162.447 77.8347 160.141 75.6465C159.184 74.743 158.833 74.503 158.509 74.503C158.27 74.503 157.792 74.3477 157.426 74.1501C157.06 73.9524 156.681 73.7971 156.582 73.7971C156.484 73.7971 156.371 73.6701 156.315 73.5289C156.273 73.3736 155.949 73.0207 155.612 72.7383C155.26 72.456 154.979 72.1031 154.979 71.9619C154.979 71.7784 154.669 71.5384 153.966 71.1572C152.602 70.4372 151.139 69.3361 149.338 67.642C147.003 65.4397 145.92 64.5079 143.642 62.7433C139.999 59.9339 138.972 59.0445 135.357 55.614C130.055 50.5741 127.368 47.8495 125.314 45.3507C122.515 41.9767 121.714 40.8473 120.856 39.1391C120.335 38.1227 119.829 37.318 119.337 36.8098C118.169 35.5816 117.185 34.0145 117.339 33.6192C117.466 33.2663 118.422 33.3793 119.126 33.8169ZM122.769 36.5274C123.064 36.6827 123.809 37.2333 124.414 37.7415C125.019 38.2638 125.765 38.8568 126.06 39.0544L126.623 39.4215L126.032 39.4638C125.23 39.5203 124.203 38.9556 123.275 37.925C122.572 37.1345 121.967 36.2451 122.136 36.2451C122.178 36.2451 122.459 36.3721 122.769 36.5274Z" fill="white"/>
</g>
</svg>
